<svg id="Layer_1" data-name="Layer 1" xmlns="http://www.w3.org/2000/svg" viewBox="0 0 41 41"><defs><style>.cls-1{fill:#b0b6bd;}.cls-2{fill:none;stroke:#b0b6bd;stroke-miterlimit:10;}</style></defs><title>Artboard 2</title><path class="cls-1" d="M20.5.5h-.0242l-.01065,0h-.0136l-.01071,0H20.4385l-.01018,0h-.00081l-.01068,0h-.0027l-.00929,0h-.00159l-.01044,0-.00283,0-.00941,0H20.3792l-.01071.00006-.00249,0L20.35716.5005l-.00232,0L20.3446.50059l-.00287,0L20.333.50068l-.00226,0-.01024.00009-.003,0-.00835.00007-.00252,0L20.29639.501l-.00293,0L20.2852.50113l-.00274,0-.01024.00011-.00276,0-.00838.0001-.00268,0-.01033.00012-.0024,0-.009.00012-.00227,0-.01033.00014-.00274,0L20.213.502l-.0028,0L20.2.5022l-.00271,0-.00844.00013-.0027,0-.01041.00017-.00227,0-.00843.00014-.00309,0L20.15182.503l-.00249,0L20.141.50316l-.00306,0-.01011.00018-.00267,0-.008.00015-.00331.00006-.0101.0002-.00245,0-.00841.00016-.003.00006-.01019.00021-.00232.00005-.00839.00017-.00318.00007-.01022.00022-.0019,0-.00886.0002-.003.00007-.01013.00023-.00234,0L20.0211.50562l-.00355.00009L20.0077.50594,20.005.506l-.0081.00019-.00325.00008-.0104.00027-.001,0-.00944.00024-.00309.00008-.01026.00027-.00165,0-.00887.00024-.00347.00009L19.93584.5078,19.9332.50788l-.008.00022-.00383.00011-.00886.00025-.00327.0001L19.90111.5088l-.00367.0001-.00913.00028-.00242.00007-.00876.00027-.00364.00011-.0088.00027L19.86216.51l-.00923.00029L19.8496.51038,19.841.51065l-.00273.00009L19.82933.511l-.004.00013-.00764.00026-.00389.00013-.00853.00029L19.8014.512l-.008.00028-.00232.00008-.00975.00034-.00392.00014-.00729.00026L19.76655.5132l-.0092.00033-.00386.00014L19.746.514l-.00288.00011-.00955.00036-.004.00015-.00731.00028L19.71905.515l-.00959.00037-.0039.00015-.007.00028L19.69508.5159,19.6857.51628l-.0042.00016-.00678.00028-.00364.00015-.00954.00039-.00373.00015-.007.00029-.0036.00015-.00923.00039-.00435.00019L19.627.51871l-.00377.00016-.00936.00041-.00406.00018-.0067.00029-.00375.00017L19.59.52033l-.00423.00019-.00639.00029L19.57523.521,19.566.52142l-.00419.00019L19.55571.5219l-.0044.0002-.00884.00042-.00471.00022-.006.00029-.00428.0002-.0091.00044L19.514.52388l-.006.00029-.00444.00022-.00907.00045-.0042.00021-.00639.00032-.00417.0002L19.47041.526l-.0038.0002-.0065.00033-.00434.00022-.00834.00043L19.44212.5275l-.00554.00029-.00494.00026-.00732.00038L19.4182.52876l-.00546.00029L19.4079.52931l-.00643.00035L19.394.53007l-.00482.00026-.00533.00029L19.37766.531l-.00754.00042-.00464.00026L19.35978.532l-.00449.00025-.00914.00052L19.3415.533,19.336.53331l-.00477.00027-.009.00053-.00442.00025-.00562.00033L19.30779.535,19.298.53553,19.294.53576l-.00581.00035L19.2838.53637,19.27425.537,19.2703.53719l-.00608.00037-.0034.0002L19.25.53843l-.00358.00022L19.2404.539l-.0036.00023L19.2264.5399l-.00381.00024L19.21684.5405l-.00422.00027-.01028.00065-.00348.00023L19.19267.542l-.0034.00022-.011.00072-.003.0002-.00629.00041-.00343.00023L19.155.54451l-.00385.00026-.00585.00039-.00394.00026L19.1315.54609l-.0041.00027-.00586.0004-.004.00027-.01.00069-.004.00027-.0059.00041-.00383.00027-.01017.00071-.00371.00026L19.0738.55007l-.00347.00024-.01166.00083-.00249.00018L19.0498.55177,19.04674.552l-.012.00087L19.03246.553l-.00621.00045-.00348.00026-.01335.001-.00065,0-.0066.00049-.00286.00021L18.97839.557l-.00276.00021-.021.00159L18.9519.559l-.02115.00163-.00251.00019-.02136.00167-.00229.00019L18.883.56443,18.881.56458l-.0219.00176-.00183.00015-.02147.00176L18.8333.56846l-.02143.00178-.00214.00018-.0219.00184-.0016.00014-.02238.00191-.00117.0001-.02211.00192-.00185.00016-.02224.002-.00129.00011L18.708.57919,18.7067.57931l-.01433.00128L18.6917.58065l-.02326.00209-.00036,0L18.645.58488,18.64428.585,18.613.58785l-.00057,0-.094.009L18.5177.597l-.04678.00466h-.0001L18.44763.604l-.001.0001-.02273.00233-.00074.00008-.023.00239-.00038,0-.02322.00243-.00038,0-.04685.005-.00031,0a19.91431,19.91431,0,0,0-3.0065.56018l-.00044.00011-.04425.01188-.00053.00015-.02134.00577-.00132.00036-.02088.00567-.0016.00044-.02061.00562-.00173.00047-.02019.00554-.00235.00064-.00648.00179-.00055.00014-.01265.00349-.00267.00074-.00632.00175-.00133.00036-.01162.00322-.00321.00089-.006.00165-.00242.00068-.01084.003-.00284.00079-.00608.0017-.00267.00074-.01027.00287-.00348.001-.00553.00155-.0044.00123-.00821.0023-.00413.00116-.00547.00154-.00429.00121L15.058,1.2493l-.00488.00138-.00491.00139-.00535.00151-.00642.00182-.00562.00159-.00447.00127-.00633.0018-.005.00143-.00648.00184-.00434.00124-.00618.00177-.00486.00138-.00666.00191-.00455.0013-.00545.00156-.00581.00167-.00653.00188L14.96,1.27723l-.00585.00168-.00531.00153-.00667.00193-.00428.00123-.00642.00186-.00293.00085-.0088.00255-.00364.001-.00717.00209-.00232.00067-.009.00262-.00353.001-.00721.00211-.0024.00069-.00928.00272-.00283.00082-.00775.00228-.00214.00062-.0093.00273-.00279.00082-.00828.00244L14.8406,1.312l-.00976.00287-.00215.00064-.009.00267-.0009.00027-.01013.003-.00164.00049-.00956.00284-.0006.00017-.01052.00313-.00086.00026-.01016.003-.0004.00012-.01048.00313-.00109.00033-.01.003L14.7529,1.338l-.0108.00324-.00016.00005-.02185.00657h0q-.06587.01986-.13153.04014l.29519.95544A19.006,19.006,0,0,1,20.5,1.5V.5ZM11.79984,2.48638l-.05931.02882,0,0-.01977.00965-.00122.0006-.01966.00964-.00044.00022-.01988.00976-.0009.00045-.01181.00581-.00159.00079-.00624.00308-.00061.0003-.01207.006-.00163.0008-.01878.0093-.002.001-.01233.00612-.00025.00012-.00572.00285-.00265.00131-.0103.00513-.00193.001-.0057.00283-.00282.00141-.00938.00468-.003.0015-.00551.00275-.00291.00146-.00926.00464-.00281.00141-.00576.00288-.00054.00028-.01116.0056-.00366.00184-.0086.00432-.00334.00169-.00518.0026-.0036.00182-.00778.00392-.00413.00209-.005.00255-.00366.00185-.00857.00433-.00335.0017L11.46961,2.65l-.00255.0013-.00953.00483-.00316.00161-.00512.0026-.00491.0025-.00706.00359-.00388.002-.00493.00252-.007.00358-.00458.00234-.00448.00229-.006.003-.00576.003-.00409.00209-.006.00307-.00519.00266-.00531.00273-.00446.00229-.00734.00377-.00366.00188-.0054.00278-.00407.00209-.00761.00393-.00379.00195-.00524.00271-.00411.00212L11.327,2.723l-.00416.00215-.00517.00268-.0049.00254-.00644.00334-.004.00206-.00576.003-.00513.00266-.00606.00315-.00358.00186-.00709.00369-.00452.00236-.0052.00271-.00376.002-.00779.00406-.0037.00194-.00576.003-.00329.00172-.008.0042-.00361.00189-.006.00313-.00319.00167-.00769.004-.00362.0019-.00714.00376-.0032.00168-.00689.00363-.00325.00172-.00845.00445-.00206.00109-.00687.00363-.00316.00166-.00827.00437-.00273.00145-.00679.0036-.00268.00142-.00837.00444-.003.00158-.00686.00364-.00224.00119-.00853.00454L11.1154,2.834l-.0083.00442-.002.001-.00794.00423-.00218.00117-.00893.00477-.00175.00093-.008.0043-.00165.00088-.00921.00493-.00165.00089-.0085.00456-.00118.00063-.00916.00492-.00208.00112-.009.00485-.00016.00008-.00941.00507-.00179.001-.00947.0051-.00009,0-.00916.005-.002.00108L10.9925,2.9l-.00073.0004L10.983,2.9051l-.00162.00088-.00934.00507-.00115.00062-.009.00487-.00095.00052-.00938.0051L10.95,2.923l-.019.01036-.00144.00078L10.92,2.9394l-.00021.00011-.00951.00521-.00116.00063-.00957.00524-.00083.00046-.0092.005-.0008.00045-.00946.00519-.00155.00086-.00909.005-.00033.00018-.00978.00539-.001.00057-.01909.01054-.00174.001-.00941.00521-.00016.00009-.00925.00512-.00158.00088-.00951.00527-.00041.00023-.00894.005-.0016.00089-.00915.00509-.00145.00081-.00892.005-.00066.00037-.0095.0053-.00131.00073-.0192.01073-.00115.00065-.01944.01089-.00092.00052-.00963.00541-.00075.00042-.00936.00527-.00052.00029-.0096.00541-.00127.00072-.00908.00511-.00051.00029-.00948.00536-.0014.00079-.01907.01079-.00111.00063-.00965.00547-.00029.00017-.00908.00515-.00156.00089-.00939.00534-.00064.00037-.00923.00525-.00078.00045L10.602,3.117l-.00073.00042-.01972.01127L10.581,3.129l-.01992.01142-.00034.00019-.05042.029-.00083.00048-.01954.0113-.00069.00041L10.47,3.193l-.00127.00073-.01939.01128-.00057.00033-.0301.01758-.00026.00014-.0199.01166-.00047.00028-.01972.01158-.00051.00029-.07022.04148-.00071.00043q-.08062.04785-.16059.09632l-.00026.00016q-.281.17037-.55568.34949l-.0002.00013q-.20125.13123-.399.26705l-.00007,0-.10571.0731-.00035.00025-.019.01322-.0001.00007L9.0469,4.102,9.04679,4.102l-.067.04706-.00006,0-.0476.0337-.00031.00021-.01874.01333-.00032.00022-.01851.01321-.00068.00048-.01874.01339h0l-.0094.00673-.0003.00022-.01869.0134-.00031.00022-.01873.01347-.00018.00013-.0188.01355-.00018.00013L8.78,4.292l-.00016.00011-.01861.0135L8.76068,4.306l-.01816.0132-.0009.00065-.01833.01336-.00028.0002-.00933.00681h0l-.00935.00684-.00012.00009-.00914.00669-.00067.00049-.01807.01326-.00086.00062-.01783.01311-.001.00073-.018.01328L8.638,4.39579l-.00914.00675-.00013.00009-.009.00668-.0004.0003-.00886.00655-.001.00079L8.601,4.42314l-.00055.00041-.00856.00635-.00148.0011-.01756.013-.00076.00056-.01806.01345-.00059.00045-.02779.02076-.0002.00015-.01824.01368-.00077.00057-.018.01354L8.488,4.50756l-.01818.01369-.00049.00037-.009.00683L8.46,4.52868l-.009.00676-.00024.00019-.00874.0066-.00121.00092-.01735.01315-.00125.00095L8.405,4.57033l-.00133.001L8.395,4.578l0,0-.0087.00663-.00094.00071L8.37661,4.592l-.00075.00057-.00816.00624-.00089.00068-.00848.00648-.00127.001-.01749.0134-.00075.00058-.01742.01338-.00124.00095-.00852.00656-.0008.0006-.00791.0061-.00123.001-.00833.00643L8.292,4.65693l-.00756.00584-.001.00081-.00842.00651L8.27372,4.671l-.01708.01323-.00149.00115-.01708.01327L8.237,4.69952l-.00867.00675L8.228,4.70646l-.00826.00644-.00127.001-.00841.00656-.00089.0007-.00856.00667-.00012.0001-.00882.00689-.00081.00064-.01745.01365-.001.00082-.01753.01375-.00054.00043L8.14555,4.771l-.0006.00047-.00826.0065-.00079.00062-.0086.00677-.00087.0007-.00829.00653-.00043.00034-.00843.00667-.00139.00109L8.09106,4.814l-.00145.00115-.01664.0132-.00162.00128-.00831.0066-.00055.00044-.00821.00654-.00087.00069-.00841.0067-.00121.001-.00751.006-.00113.0009L8.027,4.865l-.00145.00116-.00814.0065-.00023.00019-.00822.00658-.00175.0014-.008.0064-.001.00082-.00744.006-.00147.00118-.00819.00658L7.98,4.90263l-.00771.0062-.001.00083-.0084.00676-.001.00077-.00822.00663-.00036.00028-.0084.00679-.00129.001-.0167.0135-.0015.00121-.01668.01352-.00126.001-.00832.00676-.00075.00061-.00787.00639-.00106.00086L7.881,4.98273l-.00048.00039-.01743.01421L7.86224,4.998,7.845,5.01214l-.00067.00055-.0176.01441-.00026.00021-.00882.00724-.00035.00029-.00852.007-.0004.00033-.0087.00716-.0005.00042L7.78178,5.064,7.781,5.06467l-.01717.01418L7.763,5.07953l-.017.01412L7.745,5.0944l-.00854.00709-.00029.00024-.00837.00695-.00064.00053-.00834.00693-.00112.00093-.00794.00661-.00045.00038-.00819.00682-.0014.00117-.01682.01405-.00073.0006L7.665,5.16112l-.00054.00046-.00852.00714-.00068.00057-.00813.00682-.00053.00045-.00844.00708-.00088.00075-.01688.01421-.00093.00078-.0168.01418-.001.00086-.01706.01441L7.584,5.22929l-.00851.00722L7.575,5.237l-.00788.00668-.001.00084-.00821.007-.0009.00077-.01671.0142-.00115.001-.01677.01429-.00074.00063-.01722.01472-.00032.00028-.0085.00727-.00074.00064-.00811.007-.00038.00033L7.478,5.31972l-.00093.0008-.01667.01433-.001.00085L7.44276,5.35l-.00105.00092-.01661.01434-.00092.0008-.00844.0073-.00017.00015-.01732.015L7.39771,5.389l-.017.01478-.00058.00051L7.363,5.41921l-.00035.0003L7.354,5.427l-.00014.00012-.00855.00746-.00022.0002-.00864.00755-.00021.00019-.0172.01506-.00056.00049-.01681.01476-.0008.00071-.01664.01464-.0009.00079-.01684.01486-.00042.00037-.00854.00754-.00017.00016L7.24,5.52728l-.00007,0-.0173.01536-.00025.00022-.01711.01521-.00038.00034-.02575.023L7.1786,5.582l-.01693.01515-.00027.00024-.01694.01519L7.14391,5.613l-.017.01527-.0002.00018q-.13018.11715-.2582.23644l.68173.7316a19.01762,19.01762,0,0,1,4.68515-3.21l-.43556-.90016ZM4.834,8.06589l-.00093.00118-.00571.00718-.0008.001-.00643.00811-.00135.00169-.0129.01629-.00151.00191L4.798,8.11135l-.00059.00075-.00585.0074-.00156.002-.00634.008-.0008.001-.00576.00731-.00131.00167-.00642.00817-.00087.00109-.00625.008-.0006.00076-.00648.00827-.00125.00159-.00611.00779-.00045.00057L4.741,8.18379l-.0015.00191-.00632.00807-.00054.0007-.006.00769-.00136.00176-.00608.00778-.00167.00214-.005.00636-.00153.002L4.70494,8.23l-.0015.00194-.00542.007L4.697,8.24027l-.0062.008-.00161.00207-.00539.007-.001.00127-.00607.00784L4.675,8.26864,4.66927,8.276,4.668,8.27766l-.00525.00679-.00209.00271-.00592.00767-.001.00123L4.64843,8.303l-.00173.00225-.006.00778-.00133.00175-.00508.00659-.00173.00225-.00584.00761-.0017.00221-.00529.0069-.001.00128-.006.00781-.002.00256-.00465.00609-.00243.00318-.005.00648-.002.00262L4.591,8.37788l-.00145.0019-.00484.00634-.00185.00242-.00573.00753-.00192.00253-.00452.00593L4.56882,8.407l-.00572.00754-.0019.0025-.00462.00609L4.555,8.42525l-.00568.0075-.002.00271L4.54228,8.442l-.00123.00164-.00579.00765-.002.0026-.00582.0077-.001.00127-.005.00666-.00217.00288-.00564.00748-.00153.002-.0047.00626-.002.00267L4.5,8.49807l-.00236.00315L4.494,8.506l-.00251.00335-.00525.007-.00239.0032-.00415.00554-.00188.00251-.00567.00758-.00189.00252-.005.00674-.0018.00241-.00506.00678-.00186.00249-.00573.0077-.00156.00209-.00462.0062-.002.00272-.00551.0074L4.435,8.58505l-.004.00543-.00214.0029-.00528.0071-.0025.00338L4.41721,8.609,4.415,8.612,4.40982,8.619l-.00257.00348L4.40319,8.628l-.00236.00319-.00464.0063L4.39356,8.641l-.00387.00525L4.386,8.65137l-.00322.00437-.00306.00416-.00415.00564L4.37222,8.67l-.00331.0045-.00257.0035-.00513.007-.00251.00342-.00343.00468-.00262.00358-.0051.007L4.34512,8.707l-.00377.00516-.00277.00378L4.334,8.7223l-.00228.00312-.0043.0059-.003.00416-.00394.00542-.0024.00328-.00531.0073-.00191.00264-.00392.00538-.00244.00337-.00507.007L4.297,8.7731l-.00388.00536L4.291,8.78141l-.00515.00711-.00255.00353-.00351.00485-.00267.0037L4.27248,8.807l-.0028.00387-.00355.00493-.00319.00443-.00413.00572-.00249.00347-.00431.006-.003.00414-.00353.00492-.0026.00363-.005.007-.00229.00319-.00371.00519-.00232.00323L4.22433,8.874l-.00222.0031-.00363.0051-.00235.00328L4.211,8.89268l-.00211.003-.00431.006-.00226.00317-.0047.00659-.00225.00317-.00487.00683-.00191.00269-.00438.00616-.00214.003-.00526.0074-.002.00289L4.1709,8.949l-.00237.00334-.00493.007L4.161,8.96305l-.00331.00467L4.15533,8.971l-.005.00706-.00265.00375-.00335.00475-.00325.00462-.004.00574-.00265.00377L4.13066,9.006l-.003.00427-.00394.00561-.00237.00337-.00468.00667L4.114,9.0297l-.00341.00486-.00269.00385-.00491.007-.00224.00319-.00354.00506L4.09487,9.057l-.00506.00725-.00216.0031-.00383.00549-.00227.00325-.00494.00709-.00226.00324-.00408.00587L4.068,9.09558l-.00462.00664-.00214.00309-.00449.00647-.00248.00356-.00415.006-.002.00292-.00522.00754L4.041,9.1345l-.00409.00591-.00184.00265-.00523.00757-.0021.00306-.004.00585-.00178.00259-.00525.00762-.00208.003-.004.00585-.002.00291-.00477.00694-.00235.00341L3.997,9.19843l-.00206.003-.00431.00629-.00213.0031-.00531.00778-.00133.00194-.00428.00625-.0021.00307-.00515.00754-.00188.00277-.004.00578-.00207.003-.00506.00742-.00215.00314-.00379.00559-.00189.00276-.0051.0075-.00215.00317L3.93788,9.285,3.936,9.28777l-.00484.00714-.00171.00253-.00543.008-.00121.00179-.00478.00706-.00139.00206-.00557.00826-.00133.002-.0047.007-.00139.00206-.00541.008-.00175.00261-.0044.00654-.00135.002-.00538.008-.00172.00256-.00482.00718-.001.0014-.00535.008-.0019.00283-.0054.00807-.00063.00095-.005.00754-.00169.00253-.00536.008-.00135.002-.00438.00657L3.845,9.42324,3.83977,9.431l-.00167.0025-.00441.00663-.00136.00205-.0054.00813-.00166.0025-.00435.00656-.00146.0022-.00537.00811L3.81253,9.472l-.005.00749-.00141.00213-.00471.00714-.00175.00264-.00524.00793-.00158.00239-.00427.00648L3.787,9.51068l-.00542.00824-.00129.002-.00439.00666-.00168.00256-.00508.00772-.002.003-.004.00607-.00168.00256-.00507.00774-.002.003-.0046.007-.001.00145-.00509.00779-.00206.00316L3.737,9.58691l-.00168.00258L3.731,9.59611l-.00175.00269-.00515.00791-.00163.0025-.00412.00635-.00164.00251-.00526.0081-.00155.00239-.00433.00669-.00144.00221-.00535.00826-.00142.00219-.0046.00712-.00118.00182L3.68637,9.665l-.00164.00254-.00526.00815-.00084.0013-.00492.00763-.0015.00234-.00541.00841-.00089.00138L3.661,9.70433l-.00123.0019-.00552.00859-.001.00156-.005.00779-.001.00149-.00543.00849-.00143.00223L3.6356,9.744l-.00073.00114-.00543.0085L3.628,9.7559l-.00545.00855-.00008.00013-.00559.00876-.00131.00206-.0055.00865-.00061.001-.005.00782L3.6031,9.795l-.00528.00834-.00138.00216-.00431.0068-.0015.00238L3.58535,9.823l-.00126.002-.00474.00751-.001.00151L3.573,9.84255l-.00134.00213-.0049.00776L3.566,9.85365l-.00536.00853-.00138.00217L3.55383,9.873l-.00044.00069-.00507.00807-.00144.00229-.00515.00822-.0014.00224-.00444.00709-.00123.002-.00541.00865-.001.0016L3.52313,9.922,3.52255,9.923l-.00555.0089-.0011.00176-.00549.0088-.00009.00015-.00567.00911-.00106.00171-.011.01776-.00131.00211-.00539.0087-.0007.00112-.00494.008-.00114.00185-.00549.00887-.00071.00116-.005.0081-.00094.00152-.00561.00909-.00058.00095-.00553.009-.00035.00058-.00561.0091-.001.00159-.01123.01829-.00089.00144-.00565.00922-.00011.00019-.00566.00925-.00063.001-.00567.00927-.00053.00086-.0055.009-.00032.00054-.00576.00944-.00061.001-.00563.00925L3.4,10.12178l-.00579.00953-.00064.00105-.0113.01862-.00089.00149-.0111.01835-.001.00168-.0112.01856-.00069.00114-.00555.00921-.00066.00111-.005.00836-.00084.00139-.00542.009-.00081.00134-.01125.01878-.00064.00106-.01134.019-.00061.001-.01141.01913-.00047.00078-.00557.00937-.00071.00119-.00514.00866-.00053.00089-.00557.00939-.00062.001-.00556.00939v0l-.00571.00964-.00055.00094-.01123.019-.00076.00129-.011.01868-.00084.00144L3.244,10.3827l-.00018.00031-.00554.00944-.00042.00071-.00569.00969-.00022.00039-.00566.00966-.00015.00026-.0057.00975-.00038.00066-.01141.01954-.00038.00065-.01131.01943-.00047.00081-.01143.01969L3.1849,10.484l-.00575.00994-.00013.00021-.01143.01978-.00051.00088-.01112.01929-.00058.001-.01117.01941-.00037.00065-.01119.01952-.00049.00085-.0113.01976-.00017.0003-.00567.00993-.00022.0004-.00563.00987,0,.00007-.00566.00995-.00029.00051-.01133.01994-.00014.00025-.01124.01983L3.08,10.66714l-.011.01953-.00047.00082-.00542.00963-.00043.00075-.01116.01984-.00014.00025-.01122.02-.00033.0006-.02254.04033-.00024.00044-.02828.05091-.00016.00029-.01116.0202-.00018.00032-.05055.09219-.00018.00033-.02229.041v0l-.02778.05142-.00018.00035-.011.02041-.00006.00011-.02753.0515-.00024.00043-.01086.02041,0,.00008-.01085.02045-.00024.00045-.01077.02036-.00015.00029-.01074.02036-.00022.00043-.02717.05175,0,.00008-.01074.02054-.00022.00043-.02688.05173-.0002.00038-.01051.02034-.00031.00059-.01038.02014-.00042.00081-.01036.02016-.00029.00056L2.6696,11.431l-.00031.0006-.01036.02036-.00023.00046-.01031.02031L2.648,11.4734l-.0103.02037-.00024.00047-.01043.02068-.00008.00016-.005.00989-.00068.00135-.0099.01971-.00053.00106-.00994.01985-.00055.0011-.01.02006L2.59,11.58888l-.00507.01018,0,0-.005.01-.00038.00076-.0049.00987-.00054.00108-.00465.00937-.00032.00067-.00488.00985-.00058.00117-.00969.01961-.00076.00153-.00479.00973-.00016.00031-.00461.00937-.00083.00169-.00464.00943-.00066.00135-.00414.00844-.00086.00175-.00462.00942-.00071.00144-.00431.00881-.00059.00121-.00455.00933-.001.0021-.00439.009-.0002.00041-.0046.00944-.00106.00218-.00458.00943,0,0-.00457.00941-.001.00212-.00455.00938-.00042.00087-.00425.0088-.00089.00183-.00456.00942-.00069.00143-.00409.00848-.00084.00174-.00454.0094-.00079.00164-.00415.00864-.0006.00124-.00439.00913-.00121.00253-.00371.00773-.00133.00278-.00374.00781-.00141.00294L2.4459,11.884l-.0008.00168-.00373.0078-.00122.00256-.00423.00888-.00109.00229-.0036.00755-.00109.0023-.00426.00894-.00116.00245-.00363.00765-.00091.00192-.00412.00868-.0016.00339-.00314.00662-.00149.00315-.00377.008-.00153.00324-.00373.0079-.00127.00271-.00337.00714-.00155.00329-.004.00848-.00128.00274-.0031.00659-.0016.00342-.00387.00824-.00154.0033-.00283.006-.00164.00351-.00382.00818-.00157.00336-.003.00646-.00158.00338-.00361.00776-.00178.00381-.003.00645-.002.00424-.00306.0066-.00179.00384-.00321.00691-.0021.00454-.00267.00576-.00185.004-.00355.00765-.00193.00419-.0025.00542-.00166.0036-.00367.008-.00194.0042-.00247.00535-.00169.00368-.00363.0079-.002.00439-.00219.00478-.00319.007-.0021.00458-.00226.00493-.002.00433-.00372.00813-.00158.00345-.0025.00548-.002.00445-.00341.00748-.00173.0038-.00237.00522-.00323.00712-.00221.00486-.00187.00411-.00344.00757-.00209.00463-.0022.00486-.00194.00429-.00342.00754-.00194.00431-.00239.00529-.00137.003-.00443.00982-.00122.00271-.00257.0057-.001.00222-.00477.01063-.00106.00235-.00265.00592-.00025.00055-.00553.01235-.00094.0021-.00852.01907-.00074.00164L2.2171,12.38l-.00036.0008-.00586.01319-.00008.00018-.01834.04144-.00017.0004q-.17718.40165-.33708.81235l.9319.36271A18.95745,18.95745,0,0,1,5.61685,8.68808L4.834,8.06589ZM.98206,16.11564q-.08876.39684-.16165.79937l-.0001.00053-.00139.00768-.00016.00091-.00132.0073-.00022.00123-.00126.007L.81572,16.941l-.00119.00668L.8142,16.9495.813,16.95636l-.00019.00107-.00131.00735-.00018.001-.00137.00769L.80983,16.974l-.00132.00744-.00018.001-.00286.0162-.00056.00314L.804,17.00666l-.00064.00363-.00076.00433L.802,17.01835l-.0008.00453-.00065.00372-.0007.004L.79906,17.035l-.00057.00329-.00089.00508-.00042.00246-.001.00547-.00045.00253-.001.00561L.79456,17.061l-.00642.03721,0,.00019-.0013.00757,0,.00015-.00123.00717L.78543,17.114l-.0012.007-.00013.00076-.00118.007-.00014.00083-.0012.00708-.00009.00055-.00124.00728,0,.00031A20.06787,20.06787,0,0,0,.51656,19.6787v.00023l-.00031.00775,0,.00035-.0003.00767,0,.00043-.00241.06338,0,.00065-.00028.00769v.00021l-.00027.00763,0,.00062-.00027.00744,0,.00067-.00026.00737,0,.00076-.00185.05525v.00053l-.00022.0067,0,.0018L.51,19.86243l0,.0014-.00021.00646-.00006.00214-.00018.00594-.00007.00235-.00019.00594-.00006.00217-.00019.0063,0,.00114-.00134.04685v.00063l-.00018.00641-.00006.00224-.00015.00578-.00007.00259L.507,19.9662l-.00007.003-.00014.00536-.00008.00312-.00013.00488-.00009.00368-.00012.00495-.00007.00268-.00015.0058,0,.00121-.0007.02922,0,.00227L.50523,20.038l-.00006.00277-.00011.00489L.505,20.04947.50488,20.054l-.00008.00366-.00011.00488-.00008.00361-.0001.0047-.00007.00345-.0001.00509-.00007.00336-.0001.00488-.00007.00356L.504,20.096l-.00007.00383-.00009.00452-.00007.00352-.0002.01041,0,.00247-.00008.00474-.00007.00372L.50328,20.134l-.00006.00348-.00008.00486-.00007.00351-.00008.005-.00006.00349L.50285,20.159l-.00006.00371-.00008.00466-.00007.004-.00006.00412-.00007.00427-.00007.00446,0,.00353-.00007.00484,0,.00333-.00008.00516,0,.0019-.00028.01983,0,.003-.00006.0048,0,.0036-.00006.00441,0,.0043-.00006.0042,0,.00393-.00006.00465,0,.00394-.00006.00437,0,.004,0,.00446,0,.004,0,.00452,0,.00348-.00006.005,0,.00317,0,.00511,0,.005L.50089,20.309l0,.00532,0,.0045,0,.00384,0,.00457,0,.004,0,.00409,0,.00437,0,.0043,0,.004,0,.00448,0,.00384,0,.00457,0,.0043,0,.00379,0,.00494,0,.00365,0,.00505,0,.00333,0,.00518,0,.00343-.00008.01673v.003l0,.00565,0,.003v.00534l0,.00356v.00848l0,.00491v.01239l0,.00448V20.5h0v.01371l0,.011v.01381l0,.01076v.002l0,.0097V20.563l0,.011v.002l0,.00969v.00211l0,.01078v.00253l0,.01v.00117l.00006.0112,0,.00214.00007.01092V20.637l.00008.011,0,.0027.00017.02205,0,.00266.00009.011v.001l.0001.01021,0,.00251.00011.01094,0,.00149.0001.01,0,.00215.00012.01106,0,.00172.00012.01028,0,.00146.00015.01157v.00107l.00015.0113v.00061l.00017.01156v.00156l.00035.02322,0,.0015.00037.02323,0,.00152.0002.0117v.00006l.0002.01169,0,.00113.00022.01189V20.873l.00022.012v.00041l.00023.012v.00063l.00049.02431v.0002l.00052.02454v.00027l.00055.0246V20.972l.00059.02468v.00011q.01329.5448.05537,1.0822l.997-.07787C1.51964,21.50515,1.5,21.00009,1.5,20.5a19.11812,19.11812,0,0,1,.458-4.1661l-.97589-.21826Zm1.00986,8.69953-.97409.22616q.18663.80381.43688,1.58177l0,.00012q.03053.095.06195.18956l0,.00006.01454.04358,0,.00008.0193.05735.00037.00108.00718.02117.00013.0004.0073.02144.00011.00032.00732.02143.00012.00036.00724.02111.00038.00109.0072.02092.00018.00051.01225.03542.0002.00059.00739.02124.00015.00045.00732.021.00033.00095.00733.0209.00025.00074.00724.02058.00056.0016.00727.0206.00018.00051.00749.02115.0002.00056.00489.01375.00014.00039.00767.02153h0l.00257.00718,0,.00011.00486.0136.0004.00111.00732.02039.0005.00141.00727.02017.00059.00163.0072.01991.00075.00207.00476.01313,0,.00006.00225.00619.001.00264.0042.01153.00052.00142.00235.00646.00064.00175.00414.01134.00085.00232.00216.0059.00111.003.00378.01032.00091.00248.00229.00625.00052.00139.00424.01153.00094.00255.00227.00616.00033.0009.00441.01194.001.00277.00713.01924.00082.00222.00723.01945.00078.0021.00433.01164.00066.00175.00226.00606L1.7592,27.5l.00445.01191.00046.00123.00238.00634.00072.00192.00447.0119.00054.00146.00247.00657.00037.001.0046.0122.00072.00192.00244.00646.00016.00044.00474.01254.00091.00239.00718.019.0011.0029.00216.00569.00011.00027.00486.01277.00106.00279.00419.011.00073.0019.00226.00593.001.00264.00466.01217.00022.00057.00242.00633.00086.00223.00449.0117.00053.00135.00248.00645.00062.00162.00449.01166.00071.00183.00248.00642.00048.00126.00439.01133.00112.00289.00743.01917.00078.002.00747.01921.001.00257.00459.01175.00049.00124.00226.00579.00112.00286.00408.01042.001.00244.00222.00563.00125.00319.00387.00985.00116.003.00221.00561.00122.00311.00389.00986.0011.00279.00226.00571.00119.003.00391.00987.00118.003.00231.00583.00072.0018.00436.011.00111.00278.00226.00568.00106.00268.004.01013.00122.00306.00742.0186.00109.0027.0045.01125.00061.0015.00221.00552.00148.00369.00381.00947.00114.00286.00227.00563.00136.00339.0035.00866.00158.00392.0021.0052.00166.00411.00333.00823.0016.00393.0022.00545.00133.00327.00369.00908.00144.00356.00211.0052.00206.00506.003.00726.00168.00411.00208.0051.00309.00758.00181.00443.00179.00437.002.005.003.0073.00209.00509.00161.00391.00341.00831.0017.00415.0021.00508.00166.00406.003.0072.00212.00513.002.00483.00183.00442.003.00736.00206.005.00189.00456.002.00493.00294.00709.002.00476.00184.00444.00233.00559.00283.00679.00187.00449.002.0047.00319.00767.0018.00429.002.00483.00185.00444.00324.00774.00173.00411.00236.00563.00155.00368.00336.008.00176.0042.00231.00548.00151.00359.00335.00795.00186.00441.00236.00558.00177.00421.00319.00754.00157.00371.00262.00618.00228.00537.00241.00568.00178.00421.00288.00678.002.00473.00243.00569.00179.00421.00342.008.00156.00367.00226.00528.00188.00441.0033.00772.00176.00411.00225.00526.00173.004.00346.00805.00158.00369.00256.006.00145.00337.00353.00821.00164.00381.00261.006.00139.00321.00357.00827.00167.00387.00244.00565.00229.00528.00277.0064.00163.00376.00311.00716.00154.00355.003.007.00147.00338.00369.00846.00122.00279.00288.00663.00145.00331.00372.00853.00118.00269.00312.00713.0012.00274.00377.0086.00145.00331.00275.00628.00136.00309.00379.00861.0013.003.00316.00718.001.00231.00386.00873.0014.00317.00307.007.00106.00241.00377.00853.00148.00334.00325.00732.00131.003.0033.00744.00162.00365.00365.00822.001.00226.00318.00714.00152.00341.00377.00845.00119.00268.003.00676.00143.0032.00386.00863.0011.00245.00326.00728.00111.00247.004.009.00111.00246.00326.00725.00116.00259.004.00888.00109.00241.00357.00791.00076.00168.00419.00929.00092.002.004.00881.00041.00091.00424.00936.001.0022.00855.01884.00108.00238.00413.00906.00075.00166.00376.00825.00091.002.00425.00932.00072.00157.00379.0083.00084.00182.00423.00926.001.00207.00372.0081.00075.00165.00437.00951.0007.00151.004.00873.00058.00126.00431.00935.00093.002.00427.00925.0001.00023.00447.00967.00087.00188.00883.01905.001.00213.00892.01919.00077.00167.00451.00968.00021.00043.00432.00926.00073.00159.00458.00979.00023.0005.00447.00954.00047.001.00471.01L2.382,28.981l.00451.00961.00043.00092.00465.0099.00042.00089.00464.00986.0001.0002.00469.01.00058.00124.00936.0198.00053.00112.0096.02025.0002.00043.00978.02058.0002.00043.00982.02058.00021.00043.00489.01024.00014.0003.00484.01011.00013.00028.0049.01021.00024.00051.00988.02056.00013.00027.01.02074.00008.00016.01.02063.00024.00051.01.02058.00009.00019.01.02052.00027.00056.01.02054.00011.00023.01015.02074,0,.00012.00508.01035.00007.00016q.32535.66333.69743,1.29827l.86287-.50543a18.8649,18.8649,0,0,1-2.1013-5.27337Zm3.7205,7.616-.77786.62843a20.121,20.121,0,0,0,2.541,2.61858l.00058.00051.0171.01467L7.494,35.694l.01678.01436.00118.001.00828.00708.00028.00024.0079.00674.00132.00112.00794.00676.00145.00124.00692.0059.00142.00121.0078.00663.00172.00146.00706.006.00115.001.00775.00658.00189.00161.00774.00656.001.00083.00718.00608.00166.00141.00775.00655.00186.00157.00611.00516.00233.002.00719.00606.00258.00218.00586.00493.002.00167.00723.00608.00263.00221.00638.00536.00246.00207.006.00505.00321.00268.007.00585.002.00171.00569.00476.00287.00241.007.00583.00265.00221.00512.00429.00319.00266.00655.00546.00335.00279.005.00417.00306.00254.00637.00531.0033.00274.0051.00423.00444.0037.005.00417.00321.00267.0066.00547.0034.00282.0044.00365.00334.00276.00649.00537.0038.00314.004.00332.00452.00373.00556.00459.00373.00308.00395.00326.00625.00515.0034.0028.00437.0036.00355.00291L7.811,35.96l.003.00249.00458.00376.00213.00174.00843.00693.00222.00181.01549.01268.0023.00189.00892.00728.00156.00128.00522.00426.00119.001.01.00819.001.00081.01648.01342.00121.001.01676.01361.00046.00037.01717.01391.00018.00014q.682.55176,1.41119,1.04312l.55867-.82939a19.08517,19.08517,0,0,1-4.1868-3.83907Zm6.66075,5.24825-.42827.90365A19.8661,19.8661,0,0,0,14.611,39.6189l.00061.00019.02149.00659.00058.00018.02117.00647.00121.00037.02084.00635.00135.00041.02088.00633.00112.00034.02119.00639.00082.00025.0209.00628.00188.00057.01282.00384.00086.00026.00656.002.00223.00066.01077.00322.00308.00092.00557.00165.00408.00122.00913.00271.0035.001.00579.00171.00386.00114.00833.00247.00464.00137.00522.00154.0046.00136.00782.0023.0048.00141.005.00148.0057.00167.00672.002.005.00145.00483.00142.00659.00193.006.00175.00492.00144.00489.00142.00824.0024.00382.00111.00576.00167.00433.00125.00849.00247.00363.001.00632.00183.0038.0011.00866.00249.00364.00106.00663.00191.00328.00094.00889.00255.00363.001.00659.00189.00339.001.00912.00261.003.00084.00784.00224.00223.00063.00962.00274.00247.0007.00872.00248.00157.00045.00964.00272.00277.00079.00887.00251.00113.00032.00971.00273.00278.00079.00909.00256.00165.00046.00918.00258.00238.00066.01009.00283.00036.0001.00995.00278.0019.00053.01036.00289.00042.00012.01015.00282.00146.0004.02121.00589.0013.00036.01058.00292.00074.0002.01016.0028.001.00028.01093.003h0l.02251.00617.00029.00008.02242.00611.00013,0,.02255.00612.00007,0a19.8932,19.8932,0,0,0,2.41206.49536l.14025-.99011a18.85662,18.85662,0,0,1-5.43694-1.63175Zm13.88886.93141a18.99057,18.99057,0,0,1-5.60879.88855l.00789,1a20.014,20.014,0,0,0,5.11011-.70131l.00057-.00015.02167-.00592.00053-.00015.02132-.00585.00124-.00034.021-.00579.00123-.00033.02067-.00572.00186-.00052.02016-.00561.00214-.0006.02-.00559.0022-.00062.01995-.00559.0023-.00065.00973-.00274.00019-.00006.0098-.00276.00264-.00075.00917-.00259.00062-.00018.00982-.00278.00232-.00066.00956-.00271.0004-.00012.00969-.00275.00285-.00082.00863-.00246.00109-.00031.00943-.0027.00317-.00091.00754-.00215.00229-.00066.009-.0026.00343-.001.0072-.00207.00247-.00071.00906-.00261.00327-.00095.0074-.00214.00238-.00069.0089-.00258.00368-.00106L26.091,39.708l.00228-.00066.009-.00263.00367-.00107.00636-.00185.00344-.001.00846-.00247.00416-.00122.00571-.00167.00381-.00112.00843-.00247.004-.00117.00593-.00174.00386-.00114.0081-.00239.00458-.00135.00533-.00157.004-.00119.00818-.00242.00464-.00137.00483-.00143.00471-.0014.00782-.00233.005-.00149.00416-.00124.0091-.00271.00351-.001.00555-.00166.00375-.00112.01836-.0055.00374-.00113.00523-.00158.00334-.001.01008-.003.003-.00089.01907-.00577.003-.00091.00579-.00176.002-.0006.01092-.00331.00353-.00108.0191-.00582.00249-.00076.00621-.0019.00017-.00005.01329-.00407.00222-.00069.02031-.00624.00135-.00041.02031-.00627.002-.00061.02028-.00628.00159-.0005.00662-.002.00055-.00017.01351-.00421.00111-.00035.10249-.03227-.30293-.953Zm7.29911-4.312a19.02329,19.02329,0,0,1-4.65938,3.24756l.4428.89661q.8252-.40754,1.606-.88729l.00008,0,.01991-.01223.00009-.00006.01919-.01183.00127-.00078.00942-.00582.00012-.00008.00945-.00584.00068-.00042.00937-.0058.001-.0006.00894-.00554.00063-.00039.00914-.00568.00144-.0009.01842-.01145.00132-.00083.00915-.0057.00076-.00048.00853-.00532L31.081,37.475l.00884-.00553.00162-.001.00769-.00482.00165-.001.00842-.00527.00251-.00157.00738-.00464.00139-.00087.00841-.00528.00262-.00165.00744-.00468.00239-.00151.00678-.00427.00331-.00209.00775-.00489.00245-.00154.00642-.004.00282-.00178.008-.0051.00246-.00155.00616-.0039.003-.00191.00764-.00485.00316-.002.00589-.00374.00378-.0024.00654-.00416.00367-.00233.0057-.00363.0047-.003.00542-.00346.0037-.00235.00594-.0038.005-.0032.00484-.00309.00376-.0024.00708-.00453.004-.00254.00471-.003.00364-.00234.007-.00446.00447-.00287.00385-.00247.00742-.00477.00339-.00218.00511-.0033.00259-.00166.00894-.00576.0025-.00161.00528-.00341.00219-.00141.0093-.006.0025-.00161.017-.011.00195-.00127.0114-.00739.00021-.00014.0056-.00363.00188-.00123.0112-.00728.00031-.0002.00605-.00394.00086-.00056.01152-.00751.00062-.0004.018-.01174.00135-.00089.01819-.01191.0002-.00013.03116-.02047.00025-.00016a20.08847,20.08847,0,0,0,2.76247-2.1888l.00014-.00014.00419-.004-.68756-.72613Zm4.70659-7.0525a18.9514,18.9514,0,0,1-2.79,4.94556l.78782.61591a19.97442,19.97442,0,0,0,2.937-5.20632l-.93481-.35515Zm2.15768-8.48578-.99631.08583c.047.54609.0709,1.10244.0709,1.6536a19.13057,19.13057,0,0,1-.42525,4.01709l.97762.21037.00137-.00636v0l.0014-.00651.00031-.00144.00134-.00626.0003-.00139.0013-.0061.00036-.00166.00125-.00585.00043-.00205.00112-.00522.00058-.00277.00109-.00511.00052-.00246.00112-.00527.00052-.00245.00113-.00533.00057-.00271.001-.00449.00079-.00376.0009-.00425.0007-.0033.00092-.0044.00071-.00336.001-.00451.00075-.00356.00083-.004.00086-.00409.00081-.00387.00066-.00316.001-.00469.00036-.00171.0022-.01058.00067-.00319.00026-.00129.00132-.00634.00071-.00345.001-.0046.00064-.00311.00094-.00451.0007-.00342.001-.00469.0006-.0029.001-.00482.00065-.00315.001-.00483.0006-.00294.001-.00489.00059-.00287.00106-.00517.00056-.00272.001-.00507.00055-.00273.00109-.00538.0005-.00242.00109-.00538.00052-.00253.00111-.00548.00049-.00242.00112-.00549.00047-.00234.00117-.00578.00042-.0021.00112-.00559.00048-.00238.00125-.00619.00031-.00156.00137-.00678.00022-.00111.008-.04h0l.00156-.0079.00013-.00066.00141-.00712.0003-.00149.00126-.00641.00035-.00177.00121-.00613.00035-.00178.00121-.00618.00037-.00188.00121-.00614.00032-.00165.00121-.00615.0004-.00209.00114-.00579.00039-.00206.00116-.00592.00041-.0021.00114-.00591.00038-.00191.00121-.00627.00031-.0016.00135-.007.00015-.00073.00141-.00731.00014-.00073.01223-.064.00019-.001.00136-.00718.00009-.00047.0014-.00742.00017-.00089.00133-.00707.00022-.00116.00122-.00653.00035-.0018.0012-.00639.00026-.00142.00122-.00651.00027-.00145.00127-.00682.00019-.001.00133-.0072.00013-.00068.02208-.12072,0-.00025.00138-.00772.00009-.00049.00427-.02392,0-.00008.00137-.00774.00009-.00052.02249-.12908.00009-.00052.0027-.01586v-.00011q.12123-.71333.19143-1.44309v-.0001l.00314-.033v-.00011l.00154-.01635,0-.00029.01048-.116,0-.00041.00069-.0078.00005-.00065.00063-.00724.00012-.00136.00062-.00714.00007-.00092.00064-.00747.00007-.00069.00067-.00786,0-.0003.00068-.008,0-.00028.00689-.08311v-.00007l.00066-.00809.00005-.00064.00059-.00742.00011-.00138.00057-.00707.00006-.00081.0006-.00755.00005-.00072.00059-.00746.00008-.00094.00056-.00717.0001-.00131.00057-.00725.00006-.00074.00059-.00767,0-.00059.00061-.00792,0-.00026.00062-.008,0-.0003.00681-.09163V21.9572l.00058-.00792.00006-.001.00054-.00745,0-.00064.00053-.00746.00008-.0011.00051-.00724.00007-.00107.0005-.007.0001-.00143.00049-.007.00008-.0012.00048-.007.00009-.00135.0005-.00712.00008-.00112.00049-.00728.00007-.00095.00053-.00787,0-.00029L40.458,21.807l0-.00028.0005-.00791.00006-.001.00048-.00731.00006-.001.00046-.00718.00009-.00146.00043-.00673.00009-.00168.00041-.00642.00014-.00214.00037-.00611.00014-.00212.00036-.006.00016-.00247.00035-.00578.00015-.0024.00035-.00574.00016-.00263.00035-.00585.00014-.00219.00036-.00609.00014-.00227.00038-.00635.0001-.00175.00039-.00656.0001-.00176.00288-.04969.00009-.00156.00037-.00664.00012-.00216.00033-.006.00015-.00257.00032-.0058.00014-.00248.0003-.00553.00017-.00305.00029-.00529L40.47,21.6042l.00029-.00531.00015-.00288.00031-.00559.00014-.00266.00028-.00517.00018-.00338.00026-.005.00017-.00315.00027-.0053.00015-.00275.0003-.00574.00013-.00252.00031-.00594.00011-.00218.00035-.00687.00007-.00123.00249-.05,0-.0009.00035-.00729.00009-.00186.00031-.00644.00009-.00188.0003-.00633.00011-.00247.00027-.00568.00013-.00273.00026-.00543.00015-.00313.00023-.00519.00013-.00276.00026-.00558.00012-.00281.00026-.00549.00012-.00261.00025-.00569.00012-.00268.00026-.00581.0001-.0022.00027-.00612.0001-.00235.00025-.00551.00013-.00293.00021-.005.00015-.00339.00022-.005.00013-.00311.00024-.00565.00011-.00258.0003-.007,0-.00108.00031-.0073,0-.0011.00068-.01656.00009-.00218.00025-.00607.00012-.003.00021-.00508.00013-.00346.00019-.00492.00013-.00318.0002-.005.00012-.0032.0002-.00515.00012-.00314.0002-.00508.00012-.003.0002-.00548.00011-.00269.00021-.00549.0001-.00283.0002-.00548.00012-.00295.00018-.005.00012-.00349.00018-.00487.00013-.00339.00016-.00482.00013-.00336.00018-.00506.00011-.00319.00019-.00524.0001-.00294.00019-.00552.0001-.0028.00018-.00535.0001-.00293.00017-.005.00012-.0034.00014-.00438.00013-.00383.00027-.00818,0-.001.00024-.00732.00007-.00229.00019-.006.00009-.00259.00018-.00571.0001-.00318.00015-.00489.00012-.00363.00014-.00472.00011-.00351.00014-.0047.00012-.00367.00013-.00447.00012-.00406.00012-.00414.00012-.004.00013-.00427.00012-.004.00012-.00418.00011-.00388.00013-.00443.00011-.004L40.492,21.07l.00012-.004.00011-.00422.00012-.00414.00011-.00414.00011-.00395.00011-.00429.00011-.00412.00012-.00453.00009-.00343.00015-.00556.00007-.00273.0002-.00774v-.00031l.00019-.00769,0-.0008.0002-.00828.00008-.00338.00012-.00475.00009-.0038.00011-.00461.00008-.00354.00011-.00462.00008-.00367.00012-.00477.00007-.00329.00011-.00494.00008-.0033.00011-.00505.00008-.00348.0001-.00459.00008-.00387.00009-.00441.00009-.00379.00009-.0046.00008-.00354.0001-.00479.00006-.00361.0001-.0044.00007-.00395.00009-.00467.00007-.00338.0001-.005.00006-.00324.00009-.005.00007-.00354.00009-.00447.00006-.00377.00009-.00456.00007-.00379.00007-.00443.00007-.00377.00009-.00539.00005-.00284.00008-.00437.00014-.00866.00005-.00348.00006-.003.00008-.00529.00006-.00382.00006-.0044.00007-.00425.00006-.00393.00007-.00464.00006-.00359.00006-.00447.00005-.00384.00007-.00461,0-.0035.00007-.00493.00005-.00325.00006-.00482.00005-.00374.00005-.004.00006-.00452.00005-.00395,0-.004.00005-.00436.00005-.00381.00005-.00457,0-.0036.00005-.00457,0-.00379.00006-.00454,0-.00354.00005-.00474,0-.00351,0-.00468.00005-.00425,0-.00381,0-.00478,0-.00363,0-.0043,0-.004,0-.0045.00005-.00571.00005-.0063,0-.00272,0-.00545,0-.00433,0-.00389,0-.00451,0-.00377,0-.00385,0-.0048,0-.00313,0-.005,0-.00377,0-.00456,0-.00385,0-.00423,0-.00422,0-.0042v-.004l0-.00426V20.583l0-.00462v-.00363l0-.00448v-.0039l0-.00476v-.02014l0-.00456V20.5h0v-.02873l0-.01215v-.00121l0-.01161v-.00181l0-.01213V20.4303l0-.01219v-.00157l-.00005-.0119v-.001l-.00006-.01211,0-.00244-.00006-.01194v-.0018l-.00008-.01231v-.00037l-.00008-.01229v-.00221l-.0001-.01187V20.334l-.00011-.01222V20.3211l-.0001-.01207,0-.00166-.00012-.01216,0-.00208-.00012-.01219,0-.00137-.00014-.01228v-.00067l-.00014-.01255,0-.00176-.00016-.01273v-.00046l-.00036-.02659,0-.00082-.00018-.01294,0-.001-.00041-.02652v-.00041l-.00022-.01328V20.157l-.00073-.04074v0q-.01015-.53984-.04859-1.07243l-.00007-.00093-.0009-.01248-.00011-.00151-.00182-.02478-.00015-.00207-.00084-.0113-.00024-.00316-.00081-.01084-.00023-.00313-.00069-.00905-.00024-.00307-.00077-.01024-.00036-.00456-.00072-.00942-.00042-.00537-.00043-.00564-.00074-.00943-.00036-.00453-.00173-.02187-.00015-.00189-.00114-.0143,0-.00046-.00943-.11322Zm-2.73763-8.493-.85877.51236a18.86833,18.86833,0,0,1,2.14393,5.25631l.97222-.234a19.866,19.866,0,0,0-1.88891-4.89011l-.00023-.00041-.01085-.0198-.00038-.00069-.01067-.01942-.00065-.00118-.01044-.01894-.00084-.00152L38.012,10.8317l-.00121-.0022-.005-.00892-.00041-.00076-.00472-.00851-.001-.00175-.00505-.0091-.00071-.00128-.00431-.00777-.0013-.00233-.00482-.00865-.00109-.00194-.004-.00725-.00127-.00227-.00472-.00846-.00136-.00243-.00384-.00686-.00143-.00257-.00453-.00808-.00167-.003-.00377-.00673-.0012-.00213-.00454-.00809-.00185-.00328-.00345-.00613-.00257-.00458-.00338-.006-.002-.00361-.00326-.00579-.0031-.0055L37.9278,10.681l-.00232-.00411-.00291-.00515-.00371-.00655-.00228-.004-.00248-.00438L37.91,10.64955l-.0024-.00423-.00228-.004-.00262-.00461-.00349-.00615-.00315-.00554-.002-.0035-.005-.00882-.00143-.00252-.00306-.00537-.00156-.00273-.00632-.01107-.00019-.00034-.00345-.006-.001-.00171-.0059-.01031-.00119-.00207-.00323-.00564-.00112-.002-.00569-.00989-.00135-.00235-.00319-.00556-.001-.00173-.00608-.01055-.001-.0017-.01085-.0188-.0002-.00035-.011-.019-.00053-.00092q-.06523-.11267-.132-.22455ZM31.52572,3.811l-.552.83385a19.08346,19.08346,0,0,1,4.21735,3.80544l.77281-.63464a20.12049,20.12049,0,0,0-2.5081-2.55261l-.0003-.00025-.01731-.01472-.00079-.00067-.01713-.01453-.00056-.00047-.01728-.01462-.00059-.0005-.00843-.00712-.00083-.00071-.00828-.007-.00019-.00015-.00853-.00719-.00088-.00074-.017-.0143-.00088-.00073-.00841-.00707-.00053-.00044-.00775-.0065-.00136-.00114-.008-.00666-.00158-.00132-.007-.00586-.00132-.0011-.00806-.00673-.00139-.00116-.00738-.00617-.001-.00081L33.2954,5.128l-.00215-.0018-.00789-.00656-.0001-.00009-.00782-.0065-.002-.00171-.00778-.00646-.00121-.001-.00657-.00545-.00244-.002L33.25,5.09032,33.248,5.08861l-.00634-.00525-.002-.00164-.00743-.00613-.0024-.002-.00656-.00541-.00134-.00111-.00745-.00614-.00262-.00217-.00669-.0055L33.20241,5.051l-.00575-.00473-.00283-.00233L33.187,5.03828l-.00305-.0025-.00525-.00431-.0025-.002L33.169,5.02353l-.00287-.00235-.00539-.00441-.00258-.00211L33.1512,5.009,33.148,5.00634l-.00554-.00453-.0035-.00286-.00549-.00448-.00338-.00275-.00587-.00479L33.12,4.9835l-.00413-.00336-.004-.0033-.00627-.00509-.00371-.003-.0039-.00318-.00382-.0031-.00625-.00507-.004-.00328-.00364-.003-.00682-.00552L33.07005,4.943l-.00442-.00358-.003-.00243-.0075-.00606-.00277-.00224-.00469-.00378-.00184-.00149-.0087-.007-.00261-.0021L33.019,4.90182l-.00193-.00156L33.001,4.88735l-.00118-.00095-.00994-.008-.0013-.00105-.01663-.0133-.001-.00076L32.9542,4.85l-.001-.0008-.01694-.01349-.00042-.00033-.06431-.05091-.00043-.00034q-.6515-.51355-1.34537-.97306ZM23.17087.67679l-.13228.99121a18.85889,18.85889,0,0,1,5.44989,1.58768l.421-.90708A19.86063,19.86063,0,0,0,23.17087.67679Z"/><line class="cls-2" x1="20.5" y1="7.16337" x2="20.5" y2="3.59476"/><polygon class="cls-1" points="20.5 2.071 21.808 4.994 19.192 4.994 20.5 2.071"/><line class="cls-2" x1="33.95505" y1="20.64697" x2="37.52366" y2="20.64697"/><polygon class="cls-1" points="39.048 20.647 36.124 21.955 36.124 19.339 39.048 20.647"/><line class="cls-2" x1="7.0779" y1="20.64697" x2="3.5093" y2="20.64697"/><polygon class="cls-1" points="1.985 20.647 4.908 19.339 4.908 21.955 1.985 20.647"/><line class="cls-2" x1="20.5" y1="33.95438" x2="20.5" y2="37.52298"/><polygon class="cls-1" points="20.5 39.047 21.808 36.124 19.192 36.124 20.5 39.047"/><path class="cls-1" d="M30.39618,27.002A11.73156,11.73156,0,0,0,22.15332,9.01886V19.95605Z"/><path class="cls-1" d="M19.15332,8.97705A11.75118,11.75118,0,1,0,28.46021,29.294l-9.30689-7.95606Z"/></svg>