<?xml version="1.0" encoding="utf-8"?>
<!-- Generator: Adobe Illustrator 26.0.3, SVG Export Plug-In . SVG Version: 6.00 Build 0)  -->
<svg version="1.1" id="Layer_1" xmlns="http://www.w3.org/2000/svg" xmlns:xlink="http://www.w3.org/1999/xlink" x="0px" y="0px"
	 viewBox="0 0 40 37.124" style="enable-background:new 0 0 40 37.124;" xml:space="preserve">
<style type="text/css">
	.st0{clip-path:url(#SVGID_00000026164664404692318990000011105810430461643151_);}
	.st1{fill:#89949E;}
</style>
<g id="Group_163" transform="translate(0 0)">
	<g>
		<defs>
			<rect id="SVGID_1_" width="40" height="37.124"/>
		</defs>
		<clipPath id="SVGID_00000139976988352525643370000010414008321342691207_">
			<use xlink:href="#SVGID_1_"  style="overflow:visible;"/>
		</clipPath>
		
			<g id="Group_146" transform="translate(0 0)" style="clip-path:url(#SVGID_00000139976988352525643370000010414008321342691207_);">
			<path id="Path_43" class="st1" d="M36.822,7.999h-6.304l1.334,1.334c0.177,0.178,0.326,0.382,0.442,0.606h4.528
				c0.758,0.022,1.355,0.653,1.337,1.411v22.424c0.019,0.758-0.578,1.389-1.337,1.411H3.179c-0.758-0.022-1.355-0.653-1.337-1.411
				V11.35c-0.019-0.758,0.579-1.389,1.337-1.411h4.525C7.82,9.715,7.969,9.511,8.146,9.333L9.48,7.999H3.179
				C1.378,8.05-0.044,9.548,0,11.35v22.424c-0.044,1.802,1.378,3.3,3.179,3.35h33.643c1.802-0.05,3.223-1.548,3.179-3.35V11.35
				C40.046,9.548,38.624,8.05,36.822,7.999"/>
			<path id="Path_44" class="st1" d="M14.795,12.002v15.672c0,0.519,0.42,0.939,0.939,0.94h8.31c0.519,0,0.94-0.421,0.94-0.94
				V12.002h5.147c0.518,0.001,0.939-0.418,0.94-0.937c0-0.25-0.099-0.49-0.276-0.666L20.665,0.276c-0.367-0.367-0.962-0.367-1.329,0
				L9.214,10.399c-0.367,0.366-0.368,0.96-0.002,1.327c0.177,0.177,0.416,0.276,0.666,0.276H14.795z"/>
			<path id="Path_45" class="st1" d="M13.287,20.189L4.72,11.711c-0.334-0.251-0.809-0.183-1.06,0.151
				c-0.202,0.269-0.202,0.639,0,0.908l9.631,9.524L13.287,20.189z"/>
			<path id="Path_46" class="st1" d="M36.04,11.698c-0.294-0.289-0.765-0.289-1.06,0l-8.491,8.59v2.144l9.551-9.669
				c0.289-0.294,0.289-0.765,0-1.06"/>
			<path id="Path_47" class="st1" d="M36.061,31.822l-9.572-9.477v2.119l8.508,8.419c0.251,0.334,0.725,0.402,1.06,0.151
				c0.334-0.251,0.402-0.725,0.151-1.06c-0.043-0.057-0.094-0.108-0.151-0.151"/>
			<path id="Path_48" class="st1" d="M13.289,22.693l-9.014,9.114c-0.251,0.334-0.183,0.809,0.151,1.06
				c0.269,0.202,0.639,0.202,0.908,0l7.948-8.037L13.289,22.693z"/>
		</g>
	</g>
</g>
</svg>
