<?xml version="1.0" encoding="utf-8"?>
<!-- Generator: Adobe Illustrator 26.0.3, SVG Export Plug-In . SVG Version: 6.00 Build 0)  -->
<svg version="1.1" id="Layer_1" xmlns="http://www.w3.org/2000/svg" xmlns:xlink="http://www.w3.org/1999/xlink" x="0px" y="0px"
	 viewBox="0 0 40 34.517" style="enable-background:new 0 0 40 34.517;" xml:space="preserve">
<style type="text/css">
	.st0{clip-path:url(#SVGID_00000101824968765827121500000010845213170961417134_);}
	.st1{fill:#425563;}
</style>
<g id="Group_165" transform="translate(0 0)">
	<g>
		<defs>
			<rect id="SVGID_1_" x="0.009" width="39.894" height="34.514"/>
		</defs>
		<clipPath id="SVGID_00000153691362106113177870000010686114105834017189_">
			<use xlink:href="#SVGID_1_"  style="overflow:visible;"/>
		</clipPath>
		
			<g id="Group_144" transform="translate(0 0)" style="clip-path:url(#SVGID_00000153691362106113177870000010686114105834017189_);">
			<path id="Path_37" class="st1" d="M11.152,22.247l-6.881,6.964c-0.334,0.25-0.402,0.724-0.151,1.058s0.724,0.402,1.058,0.151
				c0.057-0.043,0.108-0.094,0.151-0.151l6.881-6.964L11.152,22.247z"/>
			<path id="Path_38" class="st1" d="M9.86,15.066h0.815L4.719,9.172c-0.334-0.25-0.808-0.183-1.058,0.151
				c-0.202,0.269-0.202,0.638,0,0.907l5.138,5.075c0.333-0.163,0.699-0.248,1.07-0.248"/>
			<path id="Path_39" class="st1" d="M35.952,9.156c-0.294-0.288-0.764-0.288-1.058,0l-5.838,5.911h1.002
				c0.318,0.001,0.633,0.065,0.926,0.187l4.968-5.036c0.288-0.294,0.288-0.764,0-1.058"/>
			<path id="Path_40" class="st1" d="M36.734,5.466H26.651v1.934h10.084c0.756,0.021,1.353,0.651,1.334,1.407v22.368
				c0.019,0.757-0.578,1.386-1.334,1.407H3.183c-0.756-0.021-1.353-0.651-1.334-1.407V8.808C1.83,8.051,2.427,7.422,3.183,7.401
				H13.49V5.466H3.183C1.385,5.515-0.035,7.01,0.009,8.808v22.368c-0.044,1.798,1.376,3.293,3.174,3.342h33.551
				c1.798-0.049,3.218-1.543,3.174-3.342V8.808C39.952,7.01,38.533,5.515,36.734,5.466"/>
			<path id="Path_41" class="st1" d="M25.147,16.567V0.937C25.147,0.42,24.728,0,24.21,0h-8.287c-0.517,0-0.937,0.42-0.937,0.937
				c0,0,0,0,0,0v15.63H9.859c-0.518,0.001-0.936,0.421-0.936,0.938c0,0.248,0.099,0.485,0.274,0.661l10.096,10.097
				c0.366,0.366,0.959,0.366,1.325,0c0,0,0,0,0,0l10.097-10.097c0.366-0.366,0.365-0.96-0.001-1.325
				c-0.175-0.175-0.413-0.274-0.661-0.274L25.147,16.567z"/>
			<path id="Path_42" class="st1" d="M35.976,29.221l-7.133-7.056l-1.058,1.058l7.133,7.056c0.334,0.25,0.808,0.183,1.058-0.151
				C36.177,29.859,36.177,29.49,35.976,29.221"/>
		</g>
	</g>
</g>
</svg>
