<?xml version="1.0" encoding="utf-8"?>
<!-- Generator: Adobe Illustrator 22.1.0, SVG Export Plug-In . SVG Version: 6.00 Build 0)  -->
<svg version="1.1" id="Layer_1" xmlns="http://www.w3.org/2000/svg" xmlns:xlink="http://www.w3.org/1999/xlink" x="0px" y="0px"
	 viewBox="0 0 41 41" style="enable-background:new 0 0 41 41;" xml:space="preserve">
<style type="text/css">
	.st0{fill:#99A0A7;}
	.st1{clip-path:url(#SVGID_2_);}
	.st2{clip-path:url(#SVGID_4_);}
	.st3{fill:#425563;}
	.st4{fill:#AFB6BD;}
	.st5{clip-path:url(#SVGID_6_);}
	.st6{clip-path:url(#SVGID_8_);}
</style>
<title>Artboard 33</title>
<polygon class="st0" points="25.3,2.1 24.7,10.3 18.9,20.7 19.5,12.5 "/>
<path class="st0" d="M0.3,19.9l0.5-8.2l0,0.1L0.3,19.9L0.3,19.9z"/>
<g>
	<defs>
		<polygon id="SVGID_1_" points="0.3,19.9 0.8,11.7 0.8,11.8 0.3,20 		"/>
	</defs>
	<clipPath id="SVGID_2_">
		<use xlink:href="#SVGID_1_"  style="overflow:visible;"/>
	</clipPath>
	<g class="st1">
		<g>
			<path class="st0" d="M0.8,11.8L0.3,20l0-0.1L0.8,11.8L0.8,11.8"/>
		</g>
	</g>
</g>
<path class="st0" d="M6.3,20.1l-0.5,8.2c-1.1-0.7-2.2-1.5-3.1-2.5C2,25,1.3,24,0.9,23c-0.4-0.9-0.6-2-0.6-3l0.5-8.2c0,1,0.2,2,0.6,3
	c0.4,1,1.1,2,1.9,2.8C4.2,18.6,5.2,19.4,6.3,20.1z"/>
<g>
	<defs>
		<path id="SVGID_3_" d="M6.3,20.1l-0.5,8.2c-1.1-0.7-2.2-1.5-3.1-2.5C2,25,1.3,24,0.9,23c-0.4-0.9-0.6-2-0.6-3l0.5-8.2
			c0,1,0.2,2,0.6,3c0.4,1,1.1,2,1.9,2.8C4.2,18.6,5.2,19.4,6.3,20.1z"/>
	</defs>
	<clipPath id="SVGID_4_">
		<use xlink:href="#SVGID_3_"  style="overflow:visible;"/>
	</clipPath>
	<g class="st2">
		<g>
			<path class="st3" d="M6.3,20.1l-0.5,8.2c-1.1-0.7-2.2-1.5-3.1-2.5C2,25,1.3,24,0.9,23c-0.4-0.9-0.6-2-0.6-3l0.5-8.2
				c0,1,0.2,2,0.6,3c0.4,1,1.1,2,1.9,2.8C4.2,18.6,5.2,19.4,6.3,20.1"/>
		</g>
	</g>
</g>
<path class="st4" d="M20.3,1.6c1.7,0,3.3,0.2,5,0.5l-5.8,10.4l-13,7.7l-0.1,0c-1.1-0.7-2.2-1.5-3.1-2.5c-0.8-0.8-1.4-1.8-1.9-2.8
	c-0.4-0.9-0.6-2-0.6-3c0.1-1.1,0.4-2.1,0.9-3C2.6,7.3,3.8,6,5.3,5.1C7,4,8.9,3.2,10.8,2.7c2.2-0.6,4.6-1,6.9-1.1
	C18.6,1.5,19.4,1.5,20.3,1.6z"/>
<polygon class="st0" points="19.5,12.5 18.9,20.7 5.9,28.4 6.4,20.2 "/>
<polygon class="st0" points="6.4,20.2 5.9,28.4 5.8,28.3 6.3,20.1 "/>
<path class="st4" d="M19.3,21.3l2.4,9.4c0,0-0.6,0-0.8,0c-0.9,0-1.8-0.1-2.8-0.2c-1.2-0.1-2.4-0.3-3.6-0.6c-1.1-0.2-2.3-0.6-3.4-0.9
	c-1-0.3-2-0.7-2.9-1.2L19.3,21.3z"/>
<path class="st0" d="M21.8,30.7L21.2,39c-0.3,0-0.6,0-0.8,0c-0.9,0-1.8-0.1-2.8-0.2c-1.2-0.1-2.4-0.3-3.6-0.6
	c-1.1-0.2-2.3-0.6-3.4-0.9c-1-0.3-2-0.7-2.9-1.2l0.5-8.2c0.9,0.5,1.9,0.9,2.9,1.2c1.1,0.4,2.2,0.7,3.4,0.9c1.2,0.3,2.4,0.5,3.6,0.6
	c0.9,0.1,1.8,0.2,2.8,0.2C21.2,30.7,21.5,30.7,21.8,30.7z"/>
<g>
	<defs>
		<path id="SVGID_5_" d="M21.8,30.7L21.2,39c-0.3,0-0.6,0-0.8,0c-0.9,0-1.8-0.1-2.8-0.2c-1.2-0.1-2.4-0.3-3.6-0.6
			c-1.1-0.2-2.3-0.6-3.4-0.9c-1-0.3-2-0.7-2.9-1.2l0.5-8.2c0.9,0.5,1.9,0.9,2.9,1.2c1.1,0.4,2.2,0.7,3.4,0.9
			c1.2,0.3,2.4,0.5,3.6,0.6c0.9,0.1,1.8,0.2,2.8,0.2C21.2,30.7,21.5,30.7,21.8,30.7z"/>
	</defs>
	<clipPath id="SVGID_6_">
		<use xlink:href="#SVGID_5_"  style="overflow:visible;"/>
	</clipPath>
	<g class="st5">
		<g>
			<path class="st3" d="M21.8,30.7L21.2,39c-0.2,0-0.4,0-0.6,0l0.5-8.2C21.3,30.7,21.5,30.7,21.8,30.7"/>
			<path class="st3" d="M21.1,30.7L20.6,39c-0.1,0-0.1,0-0.2,0c-0.7,0-1.3-0.1-2-0.1l0.5-8.2c0.7,0.1,1.3,0.1,2,0.1
				C21,30.7,21.1,30.7,21.1,30.7"/>
			<path class="st3" d="M19,30.6l-0.5,8.2c-0.3,0-0.5,0-0.8-0.1c-0.4,0-0.8-0.1-1.2-0.2l0.5-8.2c0.4,0.1,0.8,0.1,1.2,0.2
				C18.4,30.6,18.7,30.6,19,30.6"/>
			<path class="st3" d="M16.9,30.4l-0.5,8.2c-0.6-0.1-1.3-0.2-1.9-0.3l0.5-8.2C15.7,30.2,16.3,30.3,16.9,30.4"/>
			<path class="st3" d="M15,30.1l-0.5,8.2c-0.2,0-0.3-0.1-0.5-0.1c-0.6-0.1-1.1-0.3-1.6-0.4l0.5-8.2c0.5,0.1,1.1,0.3,1.6,0.4
				C14.7,30,14.9,30,15,30.1"/>
			<path class="st3" d="M12.9,29.6l-0.5,8.2c-0.6-0.2-1.2-0.3-1.8-0.5c-0.1,0-0.2-0.1-0.2-0.1l0.5-8.2c0.1,0,0.2,0.1,0.2,0.1
				C11.7,29.2,12.3,29.4,12.9,29.6"/>
			<path class="st3" d="M10.9,28.9l-0.5,8.2c-0.9-0.3-1.7-0.6-2.4-1L8.5,28C9.3,28.3,10.1,28.6,10.9,28.9"/>
			<path class="st3" d="M8.5,28L8,36.2c-0.1,0-0.2-0.1-0.3-0.1l0.5-8.2C8.4,27.9,8.5,27.9,8.5,28"/>
		</g>
	</g>
</g>
<path class="st0" d="M40.7,15.4l-0.5,8.2c-0.1,1-0.4,2-0.9,2.9c-0.6,1-1.4,2-2.3,2.7c-1.1,0.8-2.2,1.6-3.4,2.1
	c-1.4,0.6-2.8,1.1-4.3,1.5c-1.6,0.4-3.3,0.6-5,0.8l0.5-8.2c1.7-0.1,3.3-0.4,5-0.8c1.5-0.4,2.9-0.9,4.3-1.5c1.2-0.6,2.4-1.3,3.4-2.1
	c0.9-0.8,1.7-1.7,2.3-2.7C40.3,17.4,40.6,16.4,40.7,15.4z"/>
<g>
	<defs>
		<path id="SVGID_7_" d="M40.7,15.4l-0.5,8.2c-0.1,1-0.4,2-0.9,2.9c-0.6,1-1.4,2-2.3,2.7c-1.1,0.8-2.2,1.6-3.4,2.1
			c-1.4,0.6-2.8,1.1-4.3,1.5c-1.6,0.4-3.3,0.6-5,0.8l0.5-8.2c1.7-0.1,3.3-0.4,5-0.8c1.5-0.4,2.9-0.9,4.3-1.5
			c1.2-0.6,2.4-1.3,3.4-2.1c0.9-0.8,1.7-1.7,2.3-2.7C40.3,17.4,40.6,16.4,40.7,15.4z"/>
	</defs>
	<clipPath id="SVGID_8_">
		<use xlink:href="#SVGID_7_"  style="overflow:visible;"/>
	</clipPath>
	<g class="st6">
		<g>
			<path class="st3" d="M40.7,15.4l-0.5,8.2c0,0.2,0,0.4-0.1,0.6l0.5-8.2C40.7,15.8,40.7,15.6,40.7,15.4"/>
			<path class="st3" d="M40.6,16l-0.5,8.2c-0.1,0.4-0.2,0.8-0.3,1.1l0.5-8.2C40.5,16.7,40.6,16.4,40.6,16"/>
			<path class="st3" d="M40.4,17.1l-0.5,8.2c-0.1,0.4-0.3,0.8-0.5,1.1l0.5-8.2C40,17.9,40.2,17.5,40.4,17.1"/>
			<path class="st3" d="M39.8,18.2l-0.5,8.2l0,0c-0.2,0.4-0.5,0.8-0.8,1.2l0.5-8.2C39.3,19.1,39.6,18.7,39.8,18.2L39.8,18.2"/>
			<path class="st3" d="M39.1,19.4l-0.5,8.2c-0.3,0.4-0.7,0.8-1.1,1.2l0.5-8.2C38.4,20.2,38.7,19.8,39.1,19.4"/>
			<path class="st3" d="M38,20.6l-0.5,8.2c-0.1,0.1-0.3,0.3-0.4,0.4c-0.4,0.3-0.8,0.6-1.2,0.9l0.5-8.2c0.4-0.3,0.8-0.6,1.2-0.9
				C37.7,20.8,37.8,20.7,38,20.6"/>
			<path class="st3" d="M36.3,21.9l-0.5,8.2c-0.7,0.5-1.4,0.9-2.2,1.2c-1.4,0.6-2.8,1.1-4.3,1.5c-0.9,0.2-1.9,0.4-2.9,0.6l0.5-8.2
				c1-0.1,2-0.3,2.9-0.6c1.5-0.4,2.9-0.9,4.3-1.5C34.9,22.7,35.6,22.3,36.3,21.9"/>
			<path class="st3" d="M26.9,25.1l-0.5,8.2c-0.7,0.1-1.4,0.2-2.1,0.2l0.5-8.2C25.6,25.3,26.3,25.2,26.9,25.1"/>
		</g>
	</g>
</g>
<path class="st4" d="M28,3.8c2.2,0.6,4.4,1.4,6.4,2.6c1.6,0.9,3.1,2.1,4.3,3.5c1,1.2,1.7,2.6,1.9,4.1c0.2,1.5-0.1,3-0.8,4.3
	c-0.6,1-1.4,2-2.3,2.7c-1.1,0.8-2.2,1.6-3.4,2.1c-1.4,0.6-2.8,1.1-4.3,1.5c-1.6,0.4-3.3,0.6-5,0.8l-2.7-11.1L28,3.8z"/>
<polygon class="st0" points="24.9,25.4 24.4,33.6 21.7,22.5 22.2,14.3 "/>
</svg>
