<svg xmlns="http://www.w3.org/2000/svg" xmlns:xlink="http://www.w3.org/1999/xlink" viewBox="0 0 41 41"><defs><style>.cls-1{fill:#99a0a7;}.cls-2{isolation:isolate;}.cls-3{clip-path:url(#clip-path);}.cls-4{clip-path:url(#clip-path-2);}.cls-5{fill:#afb6bd;}.cls-6{clip-path:url(#clip-path-3);}.cls-7{clip-path:url(#clip-path-4);}</style><clipPath id="clip-path"><path class="cls-1" d="M.32443,19.94346.84106,11.7226.837,11.79393.32034,20.01479Z"/></clipPath><clipPath id="clip-path-2"><path class="cls-1" d="M6.32674,20.12638l-.51665,8.22086a15.23773,15.23773,0,0,1-3.05668-2.51879A9.61432,9.61432,0,0,1,.894,22.99561a7.40444,7.40444,0,0,1-.57369-2.98082L.837,11.79393a7.40438,7.40438,0,0,0,.57369,2.98082,9.61432,9.61432,0,0,0,1.85938,2.83284A15.23773,15.23773,0,0,0,6.32674,20.12638Z"/></clipPath><clipPath id="clip-path-3"><path class="cls-1" d="M21.75654,30.73766l-.51666,8.22087q-.42067-.001-.8421-.01287-1.37191-.03845-2.75625-.1851a32.42943,32.42943,0,0,1-3.59771-.58131,28.96575,28.96575,0,0,1-3.38044-.93815,26.08208,26.08208,0,0,1-2.89823-1.19044L8.2818,27.8298A26.081,26.081,0,0,0,11.18,29.02024a28.96575,28.96575,0,0,0,3.38044.93815,32.42943,32.42943,0,0,0,3.59771.58131q1.38636.14443,2.75625.1851Q21.3358,30.7366,21.75654,30.73766Z"/></clipPath><clipPath id="clip-path-4"><path class="cls-1" d="M40.7147,15.36915,40.198,23.59a6.75846,6.75846,0,0,1-.87949,2.8791,9.72327,9.72327,0,0,1-2.28265,2.71676,16.6925,16.6925,0,0,1-3.42231,2.12255,23.5146,23.5146,0,0,1-4.28454,1.50543,31.62447,31.62447,0,0,1-4.97242.77564l.51665-8.22085A31.62545,31.62545,0,0,0,29.8457,24.593a23.5146,23.5146,0,0,0,4.28454-1.50543A16.69207,16.69207,0,0,0,37.55255,20.965a9.72327,9.72327,0,0,0,2.28265-2.71676A6.75862,6.75862,0,0,0,40.7147,15.36915Z"/></clipPath></defs><title>Artboard 33</title><g id="Icons"><g class="cls-2"><polygon class="cls-1" points="25.257 2.066 24.74 10.287 18.946 20.736 19.463 12.515 25.257 2.066"/><path class="cls-1" d="M.32443,19.94346.84106,11.7226.837,11.79393.32034,20.01479Z"/><g class="cls-3"><g class="cls-2"><path class="cls-1" d="M.837,11.79393.32034,20.01479l.00409-.07133L.84108,11.7226.837,11.79393"/></g></g><path class="cls-1" d="M6.32674,20.12638l-.51665,8.22086a15.23773,15.23773,0,0,1-3.05668-2.51879A9.61432,9.61432,0,0,1,.894,22.99561a7.40444,7.40444,0,0,1-.57369-2.98082L.837,11.79393a7.40438,7.40438,0,0,0,.57369,2.98082,9.61432,9.61432,0,0,0,1.85938,2.83284A15.23773,15.23773,0,0,0,6.32674,20.12638Z"/><g class="cls-4"><g class="cls-2"><path class="cls-1" d="M6.32674,20.12638l-.51665,8.22086a15.23773,15.23773,0,0,1-3.05668-2.51879A9.61432,9.61432,0,0,1,.894,22.99561a7.40444,7.40444,0,0,1-.57369-2.98082L.837,11.79393a7.40438,7.40438,0,0,0,.57369,2.98082,9.61432,9.61432,0,0,0,1.85938,2.83284,15.23773,15.23773,0,0,0,3.05668,2.51879"/></g></g><path class="cls-5" d="M20.29133,1.56046a34.51,34.51,0,0,1,4.96528.50538l-5.7937,10.44939-13.03526,7.66-.10091-.04883a15.23773,15.23773,0,0,1-3.05668-2.51879,9.61432,9.61432,0,0,1-1.85938-2.83284A7.40438,7.40438,0,0,1,.837,11.79393a6.83769,6.83769,0,0,1,.905-3.02117A10.39429,10.39429,0,0,1,5.3111,5.12594,19.49724,19.49724,0,0,1,10.84531,2.6741,31.40874,31.40874,0,0,1,17.72421,1.589Q19.00057,1.52439,20.29133,1.56046Z"/><polygon class="cls-1" points="19.463 12.515 18.946 20.736 5.911 28.396 6.428 20.175 19.463 12.515"/><polygon class="cls-1" points="6.428 20.175 5.911 28.396 5.81 28.347 6.327 20.126 6.428 20.175"/></g><g class="cls-2"><path class="cls-5" d="M19.34152,21.33614l2.40848,9.393s-.55466.0035-.83557-.00437q-1.37191-.03844-2.75625-.1851a32.42943,32.42943,0,0,1-3.59771-.58131A28.96575,28.96575,0,0,1,11.18,29.02024,26.081,26.081,0,0,1,8.2818,27.8298Z"/><path class="cls-1" d="M21.75654,30.73766l-.51666,8.22087q-.42067-.001-.8421-.01287-1.37191-.03845-2.75625-.1851a32.42943,32.42943,0,0,1-3.59771-.58131,28.96575,28.96575,0,0,1-3.38044-.93815,26.08208,26.08208,0,0,1-2.89823-1.19044L8.2818,27.8298A26.081,26.081,0,0,0,11.18,29.02024a28.96575,28.96575,0,0,0,3.38044.93815,32.42943,32.42943,0,0,0,3.59771.58131q1.38636.14443,2.75625.1851Q21.3358,30.7366,21.75654,30.73766Z"/><g class="cls-6"><g class="cls-2"><path class="cls-1" d="M21.75654,30.73766l-.51665,8.22086q-.31837-.00075-.63718-.00775l.51665-8.22085q.31878.007.63718.00774"/><path class="cls-1" d="M21.11936,30.72992l-.51665,8.22085q-.10245-.00223-.20493-.00511-.97794-.0274-1.96161-.11044l.51665-8.22086q.9844.08223,1.96161.11044.10248.00288.20493.00512"/><path class="cls-1" d="M18.95282,30.61436l-.51665,8.22086q-.39657-.03313-.79464-.07466-.61563-.06448-1.232-.15255l.51665-8.22086q.61615.08817,1.232.15255.39811.04148.79464.07466"/><path class="cls-1" d="M16.92622,30.38715,16.40957,38.608q-.94962-.13587-1.89794-.32939l.51665-8.22086q.94767.19388,1.89794.32939"/><path class="cls-1" d="M15.02828,30.05776l-.51665,8.22086q-.234-.04788-.46781-.09937-.82821-.17894-1.61209-.39258l.51665-8.22086q.78388.21364,1.61209.39258.23376.05149.46781.09937"/><path class="cls-1" d="M12.94838,29.56582l-.51665,8.22085q-.91431-.24918-1.76835-.54557-.11934-.04118-.23731-.083l.51665-8.22086q.118.04183.23731.083.85405.2964,1.76835.54557"/><path class="cls-1" d="M10.94272,28.93723l-.51665,8.22086c-.85559-.30342-1.65693-.63267-2.39852-.98185l.51665-8.22086c.74159.34918,1.54293.67843,2.39852.98185"/><path class="cls-1" d="M8.5442,27.95538l-.51665,8.22086q-.13248-.06237-.2624-.12558L8.2818,27.8298q.12993.06321.2624.12558"/></g></g></g><g class="cls-2"><path class="cls-1" d="M40.7147,15.36915,40.198,23.59a6.75846,6.75846,0,0,1-.87949,2.8791,9.72327,9.72327,0,0,1-2.28265,2.71676,16.6925,16.6925,0,0,1-3.42231,2.12255,23.5146,23.5146,0,0,1-4.28454,1.50543,31.62447,31.62447,0,0,1-4.97242.77564l.51665-8.22085A31.62545,31.62545,0,0,0,29.8457,24.593a23.5146,23.5146,0,0,0,4.28454-1.50543A16.69207,16.69207,0,0,0,37.55255,20.965a9.72327,9.72327,0,0,0,2.28265-2.71676A6.75862,6.75862,0,0,0,40.7147,15.36915Z"/><g class="cls-7"><g class="cls-2"><path class="cls-1" d="M40.7147,15.36915,40.19805,23.59a6.18351,6.18351,0,0,1-.071.62257l.51665-8.22086a6.18318,6.18318,0,0,0,.071-.62257"/><path class="cls-1" d="M40.64369,15.99172,40.127,24.21258a6.51191,6.51191,0,0,1-.2884,1.112l.51665-8.22086a6.51191,6.51191,0,0,0,.2884-1.112"/><path class="cls-1" d="M40.35529,17.10368l-.51665,8.22086A7.52928,7.52928,0,0,1,39.322,26.463l.51665-8.22086a7.52928,7.52928,0,0,0,.51669-1.13846"/><path class="cls-1" d="M39.8386,18.24214,39.322,26.463l-.0034.00612a8.95055,8.95055,0,0,1-.78323,1.17726l.51665-8.22086a8.94889,8.94889,0,0,0,.78323-1.17726l.0034-.00612"/><path class="cls-1" d="M39.052,19.42552l-.51665,8.22086A10.09287,10.09287,0,0,1,37.468,28.8037l.51665-8.22086A10.092,10.092,0,0,0,39.052,19.42552"/><path class="cls-1" d="M37.98468,20.58284,37.468,28.8037q-.20843.19413-.43213.38218-.5839.47347-1.23775.90413l.51665-8.22086q.65441-.43049,1.23775-.90413.22371-.188.43213-.38218"/><path class="cls-1" d="M36.3148,21.86915,35.79815,30.09a17.667,17.667,0,0,1-2.18456,1.21842,23.5146,23.5146,0,0,1-4.28454,1.50543q-1.41745.34332-2.90773.55115l.51665-8.22086q1.4902-.2089,2.90773-.55115a23.5146,23.5146,0,0,0,4.28454-1.50543,17.667,17.667,0,0,0,2.18456-1.21842"/><path class="cls-1" d="M26.938,25.14415,26.42132,33.365q-1.01553.14236-2.06469.22449l.51665-8.22085q1.04914-.08247,2.06469-.2245"/></g></g><path class="cls-5" d="M28.02423,3.845A25.33094,25.33094,0,0,1,34.439,6.40674a15.8764,15.8764,0,0,1,4.30411,3.51985,8.22345,8.22345,0,0,1,1.90606,4.07116,6.48239,6.48239,0,0,1-.81395,4.25051A9.72327,9.72327,0,0,1,37.55255,20.965a16.69207,16.69207,0,0,1-3.42231,2.12255A23.5146,23.5146,0,0,1,29.8457,24.593a31.62545,31.62545,0,0,1-4.97242.77565L22.22151,14.29411Z"/><polygon class="cls-1" points="24.873 25.369 24.357 33.59 21.705 22.515 22.222 14.294 24.873 25.369"/></g></g></svg>