<?xml version="1.0" standalone="no"?>
<!DOCTYPE svg PUBLIC "-//W3C//DTD SVG 1.1//EN" "http://www.w3.org/Graphics/SVG/1.1/DTD/svg11.dtd" >
<svg xmlns="http://www.w3.org/2000/svg" xmlns:xlink="http://www.w3.org/1999/xlink" version="1.1">
<metadata></metadata>
<defs>
<font id="rift_softmedium" horiz-adv-x="925" >
<font-face units-per-em="2048" ascent="1597" descent="-451" />
<missing-glyph horiz-adv-x="327" />
<glyph horiz-adv-x="0" />
<glyph horiz-adv-x="682" />
<glyph unicode=" "  horiz-adv-x="327" />
<glyph unicode="&#x09;" horiz-adv-x="327" />
<glyph unicode="&#xa0;" horiz-adv-x="327" />
<glyph unicode="!" horiz-adv-x="364" d="M106 53v76q0 53 54 53h45q53 0 53 -53v-76q0 -53 -53 -53h-45q-54 0 -54 53zM106 1212v168q0 26 14.5 40t39.5 14h43q53 0 53 -54v-166l-16 -823q0 -51 -54 -51h-8q-53 0 -53 51z" />
<glyph unicode="&#x22;" horiz-adv-x="600" d="M61 954l74 430q9 50 58 50h36q28 0 40.5 -17t4.5 -45l-120 -428q-11 -41 -54 -41q-22 0 -32.5 13.5t-6.5 37.5zM336 954l74 430q9 50 57 50h37q28 0 40.5 -17t4.5 -45l-121 -428q-11 -41 -53 -41q-22 0 -32.5 13.5t-6.5 37.5z" />
<glyph unicode="#" horiz-adv-x="1224" d="M33 483v13q0 53 53 53h207l76 336h-201q-53 0 -53 53v12q0 54 53 54h229l86 382q12 48 60 48h20q28 0 40.5 -16t6.5 -44l-84 -370h303l86 382q12 48 60 48h20q28 0 40.5 -16t6.5 -44l-84 -370h181q53 0 53 -54v-12q0 -53 -53 -53h-207l-76 -336h201q53 0 53 -53v-13 q0 -53 -53 -53h-230l-86 -383q-11 -47 -59 -47h-20q-28 0 -41 15.5t-7 43.5l84 371h-303l-86 -383q-11 -47 -59 -47h-21q-28 0 -40.5 15.5t-6.5 43.5l84 371h-180q-53 0 -53 53zM424 549h301l76 336h-301z" />
<glyph unicode="$" horiz-adv-x="856" d="M98 283v184q0 53 54 53h38q54 0 54 -53v-152q0 -102 44.5 -151t141.5 -49t141.5 49t44.5 151v115q0 69 -29 107t-106 81l-200 111q-99 56 -141 110t-42 144v172q0 130 69.5 203.5t194.5 87.5v94q0 53 54 53h28q54 0 54 -53v-94q122 -15 191 -88.5t69 -202.5v-168 q0 -53 -53 -53h-39q-54 0 -54 53v135q0 103 -43.5 150t-140.5 47t-140.5 -47t-43.5 -150v-100q0 -69 26 -102.5t103 -75.5l205 -113q90 -49 137 -110.5t47 -147.5v-190q0 -271 -264 -295v-94q0 -54 -54 -54h-28q-54 0 -54 54v92q-132 14 -198 86t-66 211z" />
<glyph unicode="%" horiz-adv-x="1046" d="M74 1006v262q0 88 47.5 131t118.5 43h32q68 0 116 -43.5t48 -130.5v-262q0 -88 -48 -131.5t-116 -43.5h-32q-71 0 -118.5 43.5t-47.5 131.5zM157.5 14q-8.5 14 0.5 37l637 1350q13 33 51 33h16q22 0 29 -14.5t-2 -37.5l-637 -1349q-13 -33 -51 -33h-11q-24 0 -32.5 14z M170 1026q0 -56 18 -80t56 -24h22q38 0 56 24t18 80v221q0 56 -18 80.5t-56 24.5h-22q-38 0 -56 -24.5t-18 -80.5v-221zM610 166v262q0 88 47.5 131t118.5 43h33q68 0 116 -43.5t48 -130.5v-262q0 -87 -48 -130.5t-116 -43.5h-33q-71 0 -118.5 43t-47.5 131zM707 186 q0 -56 17.5 -80t55.5 -24h23q38 0 56 24t18 80v222q0 56 -18 80t-56 24h-23q-38 0 -55.5 -24t-17.5 -80v-222z" />
<glyph unicode="&#x26;" horiz-adv-x="948" d="M98 270v320q0 83 28.5 144t78.5 91q-46 68 -65 121.5t-19 120.5v88q0 150 80.5 222.5t244.5 72.5h5q328 0 325 -295v-139q0 -53 -53 -53h-35q-53 0 -53 53v110q0 104 -47.5 149.5t-136.5 45.5q-90 0 -137.5 -45.5t-47.5 -149.5v-55q0 -57 18.5 -99t92.5 -149l266 -385 l70 299q12 45 59 45h31q28 0 40.5 -15.5t6.5 -43.5l-100 -438l151 -222q19 -28 9 -45.5t-42 -17.5h-37q-41 0 -63 35l-70 100q-41 -75 -110.5 -113t-179.5 -38h-15q-154 0 -224.5 78t-70.5 208zM244 324q0 -111 42 -163t132 -52q76 0 118.5 37t67.5 124l-325 465 q-35 -47 -35 -117v-294z" />
<glyph unicode="'" horiz-adv-x="325" d="M61 954l74 430q9 50 58 50h36q28 0 40.5 -17t4.5 -45l-120 -428q-11 -41 -54 -41q-22 0 -32.5 13.5t-6.5 37.5z" />
<glyph unicode="(" horiz-adv-x="565" d="M127 205v1024q0 303 336 303q45 0 45 -53v-23q0 -53 -45 -53q-99 0 -147 -47t-48 -164v-950q0 -112 46 -161.5t149 -49.5q21 0 33 -14.5t12 -39.5v-22q0 -53 -45 -53q-336 0 -336 303z" />
<glyph unicode=")" horiz-adv-x="565" d="M57 -23q0 25 12 39.5t33 14.5q103 0 149 49.5t46 161.5v950q0 117 -48 164t-147 47q-45 0 -45 53v23q0 53 45 53q336 0 336 -303v-1024q0 -303 -336 -303q-45 0 -45 53v22z" />
<glyph unicode="*" horiz-adv-x="675" d="M66 1243l4 12q7 23 24 30.5t39 -3.5l170 -72l-18 181q-6 51 45 51h18q49 0 43 -51l-16 -181l168 72q47 23 63 -29l2 -10q15 -50 -33 -59l-178 -41l119 -137q34 -39 -6 -68l-12 -10q-44 -32 -66 14l-94 156l-94 -154q-26 -46 -66 -12l-10 8q-41 30 -8 68l121 135l-181 41 q-45 12 -34 59z" />
<glyph unicode="+" horiz-adv-x="860" d="M106 727v10q0 25 15 39.5t41 14.5h211v208q0 56 53 56h10q25 0 39 -15t14 -41v-208h209q26 0 41 -14.5t15 -39.5v-10q0 -53 -56 -53h-209v-211q0 -26 -14 -40.5t-39 -14.5h-10q-53 0 -53 55v211h-211q-56 0 -56 53z" />
<glyph unicode="," horiz-adv-x="339" d="M94 53v76q0 53 53 53h46q53 0 53 -53v-82q0 -135 -62 -256q-24 -43 -55 -29q-27 14 -6 64q38 83 41 174h-17q-53 0 -53 53z" />
<glyph unicode="-" horiz-adv-x="565" d="M53 725v16q0 54 53 54h353q53 0 53 -54v-16q0 -53 -53 -53h-353q-53 0 -53 53z" />
<glyph unicode="." horiz-adv-x="339" d="M94 53v76q0 53 53 53h46q53 0 53 -53v-76q0 -53 -53 -53h-46q-53 0 -53 53z" />
<glyph unicode="/" horiz-adv-x="653" d="M41 -39l444 1526q12 45 60 45h24q27 0 39 -16t4 -43l-444 -1526q-12 -45 -59 -45h-23q-28 0 -40.5 16.5t-4.5 42.5z" />
<glyph unicode="0" horiz-adv-x="892" d="M119 287v860q0 152 82 227.5t237 75.5h17q155 0 237 -75.5t82 -227.5v-860q0 -152 -82 -227.5t-237 -75.5h-17q-155 0 -237 75.5t-82 227.5zM262 324q0 -110 45 -158.5t139 -48.5t139.5 48.5t45.5 158.5v786q0 110 -45.5 158.5t-139.5 48.5t-139 -48.5t-45 -158.5v-786z " />
<glyph unicode="1" horiz-adv-x="444" d="M147 53v1233q0 20 13 33q34 54 41 78q15 41 45 41h6q39 0 39 -47v-1338q0 -53 -53 -53h-37q-54 0 -54 53z" />
<glyph unicode="2" horiz-adv-x="808" d="M94 53v244q0 53 16 102t38.5 86t64 80.5t75.5 72t91 73.5q51 41 72.5 58.5t54 47.5t44.5 49.5t22 46t10 54.5v163q0 193 -174 193q-85 0 -126.5 -47t-41.5 -146v-129q0 -53 -54 -53h-34q-54 0 -54 53v154q0 295 312 295h4q311 0 311 -295v-203q0 -22 -4.5 -43t-9 -38 t-18 -38.5t-20.5 -34t-28.5 -35t-30 -32t-37 -34t-37.5 -32t-42.5 -35t-42.5 -34.5q-60 -50 -94.5 -82t-65.5 -70t-44 -74t-13 -77v-166h434q53 0 53 -53v-21q0 -53 -53 -53h-525q-53 0 -53 53z" />
<glyph unicode="3" horiz-adv-x="821" d="M86 287v127q0 53 53 53h37q53 0 53 -53v-103q0 -200 168 -200h15q168 0 168 200v224q0 143 -160 143h-103q-25 0 -39 14t-14 39v21q0 25 14 39t39 14h82q93 0 137 37.5t44 126.5v153q0 201 -168 201h-19q-168 0 -168 -201v-69q0 -54 -53 -54h-33q-53 0 -53 54v94 q0 303 311 303h15q311 0 311 -303v-176q0 -205 -150 -226q48 -9 80 -31t46 -53.5t19 -59t5 -62.5v-252q0 -144 -73 -223.5t-218 -79.5h-55q-145 0 -218 79.5t-73 223.5z" />
<glyph unicode="4" horiz-adv-x="774" d="M29 418v49q0 31 12 65l397 861q15 41 62 41h75q54 0 54 -54v-884h63q53 0 53 -54v-24q0 -53 -53 -53h-63v-312q0 -53 -54 -53h-36q-54 0 -54 53v312h-403q-53 0 -53 53zM152 496h333v741z" />
<glyph unicode="5" horiz-adv-x="837" d="M111 279v155q0 53 53 53h35q53 0 53 -53v-131q0 -99 43 -145.5t133 -46.5q88 0 131 46.5t43 145.5v346q0 90 -40.5 123t-104.5 33q-102 0 -174 -76q-24 -31 -60 -22l-59 16q-45 12 -45 59v598q0 54 53 54h504q53 0 53 -54v-22q0 -53 -53 -53h-414v-465q75 94 217 94 q54 0 99.5 -13t84 -41.5t60.5 -80.5t22 -123v-397q0 -295 -315 -295h-4q-315 0 -315 295z" />
<glyph unicode="6" horiz-adv-x="860" d="M119 279v876q0 152 73 223.5t234 71.5h4q161 0 234 -71.5t73 -223.5v-88q0 -47 -53 -47h-37q-53 0 -53 53v57q0 107 -38.5 150t-127.5 43t-127.5 -43t-38.5 -150v-344q56 86 203 86q129 0 207 -68.5t78 -203.5v-321q0 -151 -76 -223t-238 -72h-4q-162 0 -237.5 72 t-75.5 223zM262 303q0 -106 41 -149t131 -43t131 43t41 149v270q0 170 -172 170q-77 0 -124.5 -42t-47.5 -128v-270z" />
<glyph unicode="7" horiz-adv-x="700" d="M29 1358v22q0 54 55 54h496q53 0 53 -54v-22q0 -33 -8 -66l-308 -1245q-11 -47 -57 -47h-35q-28 0 -41 16t-6 43l307 1246h-401q-55 0 -55 53z" />
<glyph unicode="8" horiz-adv-x="841" d="M98 287v211q0 221 150 247q-150 19 -150 226v176q0 144 73 223.5t218 79.5h64q145 0 217.5 -79.5t72.5 -223.5v-176q0 -208 -149 -226q149 -25 149 -247v-211q0 -144 -72.5 -223.5t-217.5 -79.5h-64q-145 0 -218 79.5t-73 223.5zM242 311q0 -103 42.5 -151.5t116.5 -48.5 h39q74 0 117 48.5t43 151.5v203q0 164 -160 164h-39q-159 0 -159 -164v-203zM242 969q0 -164 159 -164h39q160 0 160 164v153q0 103 -43 152t-117 49h-39q-74 0 -116.5 -49t-42.5 -152v-153z" />
<glyph unicode="9" horiz-adv-x="860" d="M111 834v321q0 151 75.5 223t237.5 72h4q162 0 237.5 -72t75.5 -223v-876q0 -152 -73 -223.5t-234 -71.5h-4q-161 0 -234 71.5t-73 223.5v88q0 47 53 47h37q53 0 53 -54v-57q0 -107 38.5 -149.5t127.5 -42.5t127.5 42.5t38.5 149.5v344q-56 -86 -203 -86 q-129 0 -206.5 68.5t-77.5 204.5zM254 860q0 -170 172 -170q77 0 124.5 42t47.5 128v270q0 106 -41 149.5t-131 43.5t-131 -43.5t-41 -149.5v-270z" />
<glyph unicode=":" horiz-adv-x="339" d="M94 53v76q0 53 53 53h46q53 0 53 -53v-76q0 -53 -53 -53h-46q-53 0 -53 53zM94 817v76q0 53 53 53h46q53 0 53 -53v-76q0 -53 -53 -53h-46q-53 0 -53 53z" />
<glyph unicode=";" horiz-adv-x="339" d="M94 53v76q0 53 53 53h46q53 0 53 -53v-82q0 -135 -62 -256q-24 -43 -55 -29q-27 14 -6 64q38 83 41 174h-17q-53 0 -53 53zM94 817v76q0 53 53 53h46q53 0 53 -53v-76q0 -53 -53 -53h-46q-53 0 -53 53z" />
<glyph unicode="&#x3c;" horiz-adv-x="860" d="M131 705q0 -41 33 -64l471 -352q28 -20 46.5 -9.5t18.5 44.5v36q0 42 -34 64l-424 307l424 307q34 22 34 64v37q0 34 -18.5 44.5t-46.5 -9.5l-471 -353q-33 -23 -33 -63v-53z" />
<glyph unicode="=" horiz-adv-x="860" d="M106 559v8q0 26 15 41t41 15h536q26 0 41 -15t15 -41v-8q0 -26 -15 -40.5t-41 -14.5h-536q-26 0 -41 14.5t-15 40.5zM106 899v8q0 26 15 41t41 15h536q26 0 41 -15t15 -41v-8q0 -26 -15 -40.5t-41 -14.5h-536q-26 0 -41 14.5t-15 40.5z" />
<glyph unicode="&#x3e;" horiz-adv-x="860" d="M160 324q0 -34 18.5 -44.5t46.5 9.5l471 352q33 23 33 64v53q0 40 -33 63l-471 353q-28 20 -46.5 9.5t-18.5 -44.5v-37q0 -42 35 -64l423 -307l-423 -307q-35 -22 -35 -64v-36z" />
<glyph unicode="?" horiz-adv-x="782" d="M78 987v168q0 152 74.5 223.5t236.5 71.5h4q162 0 237 -71.5t75 -223.5v-168q0 -47 -12 -87t-36.5 -72.5t-44 -52.5t-51.5 -46q-63 -49 -90 -100t-27 -131v-103q0 -53 -53 -53h-16q-53 0 -53 53v160q0 75 32.5 139.5t104.5 128.5q50 42 76 84t26 97v126q0 105 -43 149 t-131 44q-87 0 -127.5 -43.5t-40.5 -149.5v-143q0 -53 -53 -53h-35q-53 0 -53 53zM307 53v76q0 53 53 53h46q53 0 53 -53v-76q0 -53 -53 -53h-46q-53 0 -53 53z" />
<glyph unicode="@" horiz-adv-x="1292" d="M119 207v940q0 154 90 228.5t258 74.5h358q168 0 258.5 -74.5t90.5 -228.5v-653q0 -156 -60.5 -230t-157.5 -74q-64 0 -102.5 29.5t-48.5 71.5q-10 -49 -67 -81t-122 -32h-4q-83 0 -149 52t-66 157v504q0 100 64 154.5t153 54.5h4q60 0 107.5 -26.5t60.5 -67.5l13 45 q12 36 51 36q43 0 43 -45v-643q0 -114 78 -114q48 0 74 51.5t26 138.5v690q0 92 -60 140.5t-159 48.5h-412q-99 0 -160 -48.5t-61 -140.5v-977q0 -92 61 -140t160 -48h451q43 0 43 -43v-10q0 -43 -43 -43h-436q-336 0 -336 303zM514 424q0 -68 36 -103.5t95 -35.5 q58 0 93.5 35.5t35.5 103.5v430q0 68 -35.5 103.5t-93.5 35.5q-59 0 -95 -35.5t-36 -103.5v-430z" />
<glyph unicode="A" horiz-adv-x="868" d="M51 59l283 1327q9 48 59 48h78q50 0 59 -48l287 -1327q1 -8 1 -15q0 -44 -50 -44h-43q-49 0 -57 49l-62 305h-352l-61 -305q-8 -49 -58 -49h-35q-50 0 -50 44q0 7 1 15zM281 483h299l-150 746z" />
<glyph unicode="B" horiz-adv-x="903" d="M127 53v1327q0 54 53 54h297q158 0 239 -76t81 -207v-180q0 -39 -8 -74.5t-25 -69.5t-49.5 -56t-77.5 -26q91 -14 129.5 -77.5t38.5 -149.5v-235q0 -129 -86.5 -206t-245.5 -77h-293q-53 0 -53 53zM274 131h207q93 0 134.5 45t41.5 139v215q0 146 -176 146h-207v-545z M274 807h199q176 0 176 145v166q0 94 -41.5 139.5t-134.5 45.5h-199v-496z" />
<glyph unicode="C" horiz-adv-x="905" d="M119 287v860q0 150 86 226.5t250 76.5h4q164 0 250 -76.5t86 -226.5v-197q0 -53 -54 -53h-39q-55 0 -55 53v160q0 110 -44.5 158.5t-145.5 48.5t-146 -48.5t-45 -158.5v-786q0 -110 45 -158.5t146 -48.5t145.5 48.5t44.5 158.5v194q0 53 55 53h39q54 0 54 -53v-231 q0 -303 -336 -303h-4q-336 0 -336 303z" />
<glyph unicode="D" horiz-adv-x="923" d="M127 53v1327q0 54 53 54h289q165 0 250.5 -76t85.5 -228v-827q0 -303 -336 -303h-289q-53 0 -53 53zM274 133h187q104 0 150 48t46 159v754q0 111 -46 158.5t-150 47.5h-187v-1167z" />
<glyph unicode="E" horiz-adv-x="774" d="M127 53v1327q0 54 53 54h473q54 0 54 -54v-26q0 -54 -54 -54h-379v-507h316q53 0 53 -54v-24q0 -53 -53 -53h-316v-529h385q54 0 54 -53v-27q0 -53 -54 -53h-479q-53 0 -53 53z" />
<glyph unicode="F" horiz-adv-x="731" d="M127 53v1327q0 54 53 54h465q53 0 53 -54v-26q0 -54 -53 -54h-371v-518h308q53 0 53 -53v-24q0 -54 -53 -54h-308v-598q0 -53 -55 -53h-39q-53 0 -53 53z" />
<glyph unicode="G" horiz-adv-x="921" d="M119 287v860q0 150 86 226.5t250 76.5h16q164 0 250 -76.5t86 -226.5v-139q0 -54 -53 -54h-39q-56 0 -56 54v102q0 111 -46 159t-150 48t-150.5 -48t-46.5 -159v-786q0 -111 46.5 -159t150.5 -48t150 48t46 159v264h-151q-53 0 -53 55v23q0 53 53 53h246q53 0 53 -53 v-379q0 -303 -336 -303h-16q-336 0 -336 303z" />
<glyph unicode="H" horiz-adv-x="952" d="M127 53v1327q0 54 53 54h39q55 0 55 -54v-583h404v583q0 54 55 54h39q53 0 53 -54v-1327q0 -53 -53 -53h-39q-55 0 -55 53v609h-404v-609q0 -53 -55 -53h-39q-53 0 -53 53z" />
<glyph unicode="I" horiz-adv-x="415" d="M135 53v1327q0 54 53 54h39q56 0 56 -54v-1327q0 -53 -56 -53h-39q-53 0 -53 53z" />
<glyph unicode="J" horiz-adv-x="565" d="M37 53v29q0 53 53 53h8q104 0 151.5 48.5t47.5 160.5v1036q0 54 53 54h41q53 0 53 -54v-1077q0 -303 -342 -303h-12q-53 0 -53 53z" />
<glyph unicode="K" horiz-adv-x="880" d="M127 53v1327q0 54 53 54h39q55 0 55 -54v-684l377 699q19 39 64 39h49q31 0 41.5 -18t-4.5 -46l-275 -473l314 -836q9 -27 -2.5 -44t-40.5 -17h-43q-47 0 -62 43l-256 696l-162 -278v-408q0 -53 -55 -53h-39q-53 0 -53 53z" />
<glyph unicode="L" horiz-adv-x="718" d="M127 53v1327q0 54 53 54h39q55 0 55 -54v-1245h355q53 0 53 -53v-29q0 -53 -53 -53h-449q-53 0 -53 53z" />
<glyph unicode="M" horiz-adv-x="1218" d="M127 53v1327q0 54 53 54h43q47 0 62 -43l319 -906l326 906q13 43 61 43h47q54 0 54 -54v-1327q0 -53 -54 -53h-37q-53 0 -53 53v1020l-284 -797q-15 -43 -56 -43q-44 0 -59 43l-285 797v-1020q0 -53 -53 -53h-31q-53 0 -53 53z" />
<glyph unicode="N" horiz-adv-x="960" d="M127 53v1327q0 54 53 54h51q48 0 60 -43l405 -1045v1034q0 54 54 54h30q54 0 54 -54v-1327q0 -53 -54 -53h-43q-46 0 -61 43l-412 1065v-1055q0 -53 -53 -53h-31q-53 0 -53 53z" />
<glyph unicode="O" d="M119 287v860q0 303 336 303h16q336 0 336 -303v-860q0 -303 -336 -303h-16q-336 0 -336 303zM266 324q0 -111 46.5 -159t150.5 -48t150 48t46 159v786q0 111 -46 159t-150 48t-150.5 -48t-46.5 -159v-786z" />
<glyph unicode="P" horiz-adv-x="882" d="M127 53v1327q0 54 53 54h293q165 0 250.5 -76t85.5 -228v-239q0 -303 -336 -303h-199v-535q0 -53 -55 -53h-39q-53 0 -53 53zM274 721h191q104 0 150.5 48t46.5 159v166q0 111 -46.5 158.5t-150.5 47.5h-191v-579z" />
<glyph unicode="Q" d="M119 287v860q0 303 336 303h16q336 0 336 -303v-860q0 -271 -270 -299v-144q0 -53 -54 -53h-32q-54 0 -54 53v142q-278 25 -278 301zM266 324q0 -111 46.5 -159t150.5 -48t150 48t46 159v786q0 111 -46 159t-150 48t-150.5 -48t-46.5 -159v-786z" />
<glyph unicode="R" horiz-adv-x="923" d="M127 53v1327q0 54 53 54h293q165 0 250.5 -76t85.5 -228v-223q0 -220 -180 -280l209 -566q9 -27 -2.5 -44t-40.5 -17h-43q-47 0 -62 43l-205 561h-12h-199v-551q0 -53 -55 -53h-39q-53 0 -53 53zM274 735h191q104 0 150.5 48t46.5 159v152q0 111 -46.5 158.5t-150.5 47.5 h-191v-565z" />
<glyph unicode="S" horiz-adv-x="856" d="M98 283v184q0 53 54 53h38q54 0 54 -53v-152q0 -102 44.5 -151t141.5 -49t141.5 49t44.5 151v115q0 69 -29 107t-106 81l-200 111q-99 56 -141 110t-42 144v172q0 146 87.5 220.5t240.5 74.5h4q153 0 240.5 -74.5t87.5 -220.5v-168q0 -53 -53 -53h-39q-54 0 -54 53v135 q0 103 -43.5 150t-140.5 47t-140.5 -47t-43.5 -150v-100q0 -69 26 -102.5t103 -75.5l205 -113q90 -49 137 -110.5t47 -147.5v-190q0 -154 -82.5 -226.5t-247.5 -72.5h-4q-166 0 -248 71.5t-82 227.5z" />
<glyph unicode="T" horiz-adv-x="716" d="M25 1354v26q0 54 53 54h563q53 0 53 -54v-26q0 -54 -53 -54h-209v-1247q0 -53 -53 -53h-41q-53 0 -53 53v1247h-207q-53 0 -53 54z" />
<glyph unicode="U" horiz-adv-x="917" d="M123 287v1093q0 54 53 54h39q55 0 55 -54v-1056q0 -113 43 -160t146 -47t145.5 47t42.5 160v1056q0 54 55 54h39q54 0 54 -54v-1093q0 -303 -332 -303h-8q-165 0 -248.5 73.5t-83.5 229.5z" />
<glyph unicode="V" horiz-adv-x="835" d="M51 1374q-1 8 -1 15q0 45 50 45h43q49 0 58 -50l221 -1134l221 1134q9 50 57 50h35q50 0 50 -45q0 -7 -1 -15l-276 -1327q-9 -47 -59 -47h-62q-50 0 -59 47z" />
<glyph unicode="W" horiz-adv-x="1314" d="M53 1376q-1 8 -1 15q0 43 50 43h39q49 0 58 -52l166 -1103l217 1107q9 48 59 48h41q50 0 59 -48l217 -1107l166 1103q3 25 18 38.5t38 13.5h32q28 0 41 -15t9 -43l-222 -1327q-9 -49 -57 -49h-43q-50 0 -59 47l-222 1102l-223 -1102q-6 -47 -57 -47h-47q-49 0 -58 49z " />
<glyph unicode="X" horiz-adv-x="841" d="M57 61l279 678l-256 633q-11 28 0.5 45t40.5 17h47q47 0 59 -43l199 -521l184 519q16 45 62 45h41q29 0 40.5 -17.5t2.5 -44.5l-246 -639l274 -672q12 -28 0.5 -44.5t-41.5 -16.5h-47q-47 0 -59 43l-219 559l-215 -559q-15 -43 -62 -43h-43q-29 0 -40.5 16.5t-0.5 44.5z " />
<glyph unicode="Y" horiz-adv-x="847" d="M61 1374q-10 28 1.5 44t41.5 16h43q46 0 62 -45l215 -676l217 676q16 45 61 45h41q30 0 41.5 -16t1.5 -44l-288 -829v-492q0 -53 -54 -53h-41q-53 0 -53 53v492z" />
<glyph unicode="Z" horiz-adv-x="743" d="M53 53v21q0 32 13 65l454 1168h-389q-53 0 -53 53v20q0 54 53 54h494q53 0 53 -54v-20q0 -28 -12 -66l-455 -1167h428q53 0 53 -53v-21q0 -53 -53 -53h-533q-53 0 -53 53z" />
<glyph unicode="[" horiz-adv-x="565" d="M127 -45v1524q0 53 53 53h275q53 0 53 -53v-25q0 -53 -53 -53h-187v-1368h187q53 0 53 -53v-25q0 -53 -53 -53h-275q-53 0 -53 53z" />
<glyph unicode="\" horiz-adv-x="653" d="M41 1473q-8 27 4 43t39 16h25q47 0 59 -45l444 -1526q8 -26 -4.5 -42.5t-40.5 -16.5h-22q-48 0 -60 45z" />
<glyph unicode="]" horiz-adv-x="565" d="M57 -20q0 53 54 53h186v1368h-186q-54 0 -54 53v25q0 53 54 53h274q53 0 53 -53v-1524q0 -53 -53 -53h-274q-54 0 -54 53v25z" />
<glyph unicode="^" horiz-adv-x="770" d="M63 803q-11 -28 0.5 -45t40.5 -17h31q46 0 60 41l190 514l190 -514q14 -41 60 -41h31q29 0 40.5 17t0.5 45l-232 590q-12 41 -59 41h-62q-47 0 -59 -41z" />
<glyph unicode="_" horiz-adv-x="698" d="M-10 -166q0 53 53 53h612q54 0 54 -53v-6q0 -53 -54 -53h-612q-53 0 -53 53v6z" />
<glyph unicode="`" horiz-adv-x="927" d="M309 1790.5q9 19.5 43 19.5h56q44 0 63 -36l88 -166q14 -28 7.5 -45t-31.5 -17h-19q-38 0 -61 29l-133 170q-22 26 -13 45.5z" />
<glyph unicode="a" horiz-adv-x="868" d="M51 59l283 1327q9 48 59 48h78q50 0 59 -48l287 -1327q1 -8 1 -15q0 -44 -50 -44h-43q-49 0 -57 49l-62 305h-352l-61 -305q-8 -49 -58 -49h-35q-50 0 -50 44q0 7 1 15zM281 483h299l-150 746z" />
<glyph unicode="b" horiz-adv-x="903" d="M127 53v1327q0 54 53 54h297q158 0 239 -76t81 -207v-180q0 -39 -8 -74.5t-25 -69.5t-49.5 -56t-77.5 -26q91 -14 129.5 -77.5t38.5 -149.5v-235q0 -129 -86.5 -206t-245.5 -77h-293q-53 0 -53 53zM274 131h207q93 0 134.5 45t41.5 139v215q0 146 -176 146h-207v-545z M274 807h199q176 0 176 145v166q0 94 -41.5 139.5t-134.5 45.5h-199v-496z" />
<glyph unicode="c" horiz-adv-x="905" d="M119 287v860q0 150 86 226.5t250 76.5h4q164 0 250 -76.5t86 -226.5v-197q0 -53 -54 -53h-39q-55 0 -55 53v160q0 110 -44.5 158.5t-145.5 48.5t-146 -48.5t-45 -158.5v-786q0 -110 45 -158.5t146 -48.5t145.5 48.5t44.5 158.5v194q0 53 55 53h39q54 0 54 -53v-231 q0 -303 -336 -303h-4q-336 0 -336 303z" />
<glyph unicode="d" horiz-adv-x="923" d="M127 53v1327q0 54 53 54h289q165 0 250.5 -76t85.5 -228v-827q0 -303 -336 -303h-289q-53 0 -53 53zM274 133h187q104 0 150 48t46 159v754q0 111 -46 158.5t-150 47.5h-187v-1167z" />
<glyph unicode="e" horiz-adv-x="774" d="M127 53v1327q0 54 53 54h473q54 0 54 -54v-26q0 -54 -54 -54h-379v-507h316q53 0 53 -54v-24q0 -53 -53 -53h-316v-529h385q54 0 54 -53v-27q0 -53 -54 -53h-479q-53 0 -53 53z" />
<glyph unicode="f" horiz-adv-x="731" d="M127 53v1327q0 54 53 54h465q53 0 53 -54v-26q0 -54 -53 -54h-371v-518h308q53 0 53 -53v-24q0 -54 -53 -54h-308v-598q0 -53 -55 -53h-39q-53 0 -53 53z" />
<glyph unicode="g" horiz-adv-x="921" d="M119 287v860q0 150 86 226.5t250 76.5h16q164 0 250 -76.5t86 -226.5v-139q0 -54 -53 -54h-39q-56 0 -56 54v102q0 111 -46 159t-150 48t-150.5 -48t-46.5 -159v-786q0 -111 46.5 -159t150.5 -48t150 48t46 159v264h-151q-53 0 -53 55v23q0 53 53 53h246q53 0 53 -53 v-379q0 -303 -336 -303h-16q-336 0 -336 303z" />
<glyph unicode="h" horiz-adv-x="952" d="M127 53v1327q0 54 53 54h39q55 0 55 -54v-583h404v583q0 54 55 54h39q53 0 53 -54v-1327q0 -53 -53 -53h-39q-55 0 -55 53v609h-404v-609q0 -53 -55 -53h-39q-53 0 -53 53z" />
<glyph unicode="i" horiz-adv-x="415" d="M135 53v1327q0 54 53 54h39q56 0 56 -54v-1327q0 -53 -56 -53h-39q-53 0 -53 53z" />
<glyph unicode="j" horiz-adv-x="565" d="M37 53v29q0 53 53 53h8q104 0 151.5 48.5t47.5 160.5v1036q0 54 53 54h41q53 0 53 -54v-1077q0 -303 -342 -303h-12q-53 0 -53 53z" />
<glyph unicode="k" horiz-adv-x="880" d="M127 53v1327q0 54 53 54h39q55 0 55 -54v-684l377 699q19 39 64 39h49q31 0 41.5 -18t-4.5 -46l-275 -473l314 -836q9 -27 -2.5 -44t-40.5 -17h-43q-47 0 -62 43l-256 696l-162 -278v-408q0 -53 -55 -53h-39q-53 0 -53 53z" />
<glyph unicode="l" horiz-adv-x="718" d="M127 53v1327q0 54 53 54h39q55 0 55 -54v-1245h355q53 0 53 -53v-29q0 -53 -53 -53h-449q-53 0 -53 53z" />
<glyph unicode="m" horiz-adv-x="1218" d="M127 53v1327q0 54 53 54h43q47 0 62 -43l319 -906l326 906q13 43 61 43h47q54 0 54 -54v-1327q0 -53 -54 -53h-37q-53 0 -53 53v1020l-284 -797q-15 -43 -56 -43q-44 0 -59 43l-285 797v-1020q0 -53 -53 -53h-31q-53 0 -53 53z" />
<glyph unicode="n" horiz-adv-x="960" d="M127 53v1327q0 54 53 54h51q48 0 60 -43l405 -1045v1034q0 54 54 54h30q54 0 54 -54v-1327q0 -53 -54 -53h-43q-46 0 -61 43l-412 1065v-1055q0 -53 -53 -53h-31q-53 0 -53 53z" />
<glyph unicode="o" d="M119 287v860q0 303 336 303h16q336 0 336 -303v-860q0 -303 -336 -303h-16q-336 0 -336 303zM266 324q0 -111 46.5 -159t150.5 -48t150 48t46 159v786q0 111 -46 159t-150 48t-150.5 -48t-46.5 -159v-786z" />
<glyph unicode="p" horiz-adv-x="882" d="M127 53v1327q0 54 53 54h293q165 0 250.5 -76t85.5 -228v-239q0 -303 -336 -303h-199v-535q0 -53 -55 -53h-39q-53 0 -53 53zM274 721h191q104 0 150.5 48t46.5 159v166q0 111 -46.5 158.5t-150.5 47.5h-191v-579z" />
<glyph unicode="q" d="M119 287v860q0 303 336 303h16q336 0 336 -303v-860q0 -271 -270 -299v-144q0 -53 -54 -53h-32q-54 0 -54 53v142q-278 25 -278 301zM266 324q0 -111 46.5 -159t150.5 -48t150 48t46 159v786q0 111 -46 159t-150 48t-150.5 -48t-46.5 -159v-786z" />
<glyph unicode="r" horiz-adv-x="923" d="M127 53v1327q0 54 53 54h293q165 0 250.5 -76t85.5 -228v-223q0 -220 -180 -280l209 -566q9 -27 -2.5 -44t-40.5 -17h-43q-47 0 -62 43l-205 561h-12h-199v-551q0 -53 -55 -53h-39q-53 0 -53 53zM274 735h191q104 0 150.5 48t46.5 159v152q0 111 -46.5 158.5t-150.5 47.5 h-191v-565z" />
<glyph unicode="s" horiz-adv-x="856" d="M98 283v184q0 53 54 53h38q54 0 54 -53v-152q0 -102 44.5 -151t141.5 -49t141.5 49t44.5 151v115q0 69 -29 107t-106 81l-200 111q-99 56 -141 110t-42 144v172q0 146 87.5 220.5t240.5 74.5h4q153 0 240.5 -74.5t87.5 -220.5v-168q0 -53 -53 -53h-39q-54 0 -54 53v135 q0 103 -43.5 150t-140.5 47t-140.5 -47t-43.5 -150v-100q0 -69 26 -102.5t103 -75.5l205 -113q90 -49 137 -110.5t47 -147.5v-190q0 -154 -82.5 -226.5t-247.5 -72.5h-4q-166 0 -248 71.5t-82 227.5z" />
<glyph unicode="t" horiz-adv-x="716" d="M25 1354v26q0 54 53 54h563q53 0 53 -54v-26q0 -54 -53 -54h-209v-1247q0 -53 -53 -53h-41q-53 0 -53 53v1247h-207q-53 0 -53 54z" />
<glyph unicode="u" horiz-adv-x="917" d="M123 287v1093q0 54 53 54h39q55 0 55 -54v-1056q0 -113 43 -160t146 -47t145.5 47t42.5 160v1056q0 54 55 54h39q54 0 54 -54v-1093q0 -303 -332 -303h-8q-165 0 -248.5 73.5t-83.5 229.5z" />
<glyph unicode="v" horiz-adv-x="835" d="M51 1374q-1 8 -1 15q0 45 50 45h43q49 0 58 -50l221 -1134l221 1134q9 50 57 50h35q50 0 50 -45q0 -7 -1 -15l-276 -1327q-9 -47 -59 -47h-62q-50 0 -59 47z" />
<glyph unicode="w" horiz-adv-x="1314" d="M53 1376q-1 8 -1 15q0 43 50 43h39q49 0 58 -52l166 -1103l217 1107q9 48 59 48h41q50 0 59 -48l217 -1107l166 1103q3 25 18 38.5t38 13.5h32q28 0 41 -15t9 -43l-222 -1327q-9 -49 -57 -49h-43q-50 0 -59 47l-222 1102l-223 -1102q-6 -47 -57 -47h-47q-49 0 -58 49z " />
<glyph unicode="x" horiz-adv-x="841" d="M57 61l279 678l-256 633q-11 28 0.5 45t40.5 17h47q47 0 59 -43l199 -521l184 519q16 45 62 45h41q29 0 40.5 -17.5t2.5 -44.5l-246 -639l274 -672q12 -28 0.5 -44.5t-41.5 -16.5h-47q-47 0 -59 43l-219 559l-215 -559q-15 -43 -62 -43h-43q-29 0 -40.5 16.5t-0.5 44.5z " />
<glyph unicode="y" horiz-adv-x="847" d="M61 1374q-10 28 1.5 44t41.5 16h43q46 0 62 -45l215 -676l217 676q16 45 61 45h41q30 0 41.5 -16t1.5 -44l-288 -829v-492q0 -53 -54 -53h-41q-53 0 -53 53v492z" />
<glyph unicode="z" horiz-adv-x="743" d="M53 53v21q0 32 13 65l454 1168h-389q-53 0 -53 53v20q0 54 53 54h494q53 0 53 -54v-20q0 -28 -12 -66l-455 -1167h428q53 0 53 -53v-21q0 -53 -53 -53h-533q-53 0 -53 53z" />
<glyph unicode="{" horiz-adv-x="630" d="M49 713v20q0 42 47 60q51 12 74 41.5t23 80.5v314q0 303 335 303q45 0 45 -53v-25q0 -53 -45 -53q-99 0 -146.5 -46.5t-47.5 -162.5v-283q0 -73 -33 -118t-106 -66q73 -23 106 -67t33 -117v-299q0 -116 47.5 -162.5t146.5 -46.5q45 0 45 -53v-25q0 -53 -45 -53 q-335 0 -335 303v327q0 51 -23 81t-74 42q-47 15 -47 58z" />
<glyph unicode="|" horiz-adv-x="471" d="M168 -152v1737q0 53 53 53h29q53 0 53 -53v-1737q0 -53 -53 -53h-29q-53 0 -53 53z" />
<glyph unicode="}" horiz-adv-x="630" d="M57 -20q0 53 45 53q99 0 147 46.5t48 162.5v299q0 73 33 117t106 67q-73 21 -106 66t-33 118v283q0 116 -48 162.5t-147 46.5q-45 0 -45 53v25q0 53 45 53q336 0 336 -303v-314q0 -51 23 -80.5t74 -41.5q47 -18 47 -60v-20q0 -43 -47 -58q-51 -12 -74 -42t-23 -81v-327 q0 -303 -336 -303q-45 0 -45 53v25z" />
<glyph unicode="~" horiz-adv-x="811" d="M74 643q0 -39 35 -39h41q34 0 34 35v4q0 44 21 69t53 25q30 0 67.5 -22.5t69 -50t76.5 -50t88 -22.5q73 0 125.5 54.5t52.5 162.5q0 39 -35 39h-40q-37 0 -37 -35v-6q0 -42 -19.5 -67t-52.5 -25q-28 0 -64.5 22.5t-67 50t-76 50t-89.5 22.5q-73 0 -127.5 -55t-54.5 -162z " />
<glyph unicode="&#xa1;" horiz-adv-x="364" d="M106 53v168l19 821q0 52 53 52h8q54 0 54 -52l16 -823v-166q0 -53 -53 -53h-43q-54 0 -54 53zM106 1305v75q0 54 54 54h45q53 0 53 -54v-75q0 -54 -53 -54h-45q-54 0 -54 54z" />
<glyph unicode="&#xa2;" horiz-adv-x="843" d="M86 463v508q0 134 69.5 209.5t202.5 89.5v110q0 54 54 54h28q54 0 54 -54v-110q131 -14 199.5 -90t68.5 -209v-62q0 -53 -53 -53h-39q-54 0 -54 53v25q0 110 -45.5 159.5t-146.5 49.5t-147 -49.5t-46 -159.5v-434q0 -110 46 -159.5t147 -49.5q100 0 146 52t46 157v59 q0 53 54 53h39q53 0 53 -53v-96q0 -271 -268 -299v-111q0 -53 -54 -53h-28q-54 0 -54 53v109q-272 28 -272 301z" />
<glyph unicode="&#xa3;" horiz-adv-x="843" d="M53 705v14q0 53 53 53h82v375q0 303 291 303h4q155 0 222 -79t67 -224v-164q0 -53 -53 -53h-39q-55 0 -55 53v147q0 91 -29.5 139t-114.5 48t-115 -48t-30 -139v-358h199q53 0 53 -53v-14q0 -54 -53 -54h-199q0 -239 -27.5 -359t-105.5 -159h495q54 0 54 -53v-27 q0 -53 -54 -53h-575q-48 0 -57 47l-11 41q-7 38 29 70q62 48 83 160.5t21 332.5h-82q-53 0 -53 54z" />
<glyph unicode="&#xa5;" horiz-adv-x="847" d="M61 1374q-10 28 1.5 44t41.5 16h43q46 0 62 -45l215 -676l217 676q16 45 61 45h41q30 0 41.5 -16t1.5 -44l-243 -698h143q39 0 39 -37v-14q0 -37 -39 -37h-174l-14 -43v-88h188q39 0 39 -37v-14q0 -37 -39 -37h-188v-316q0 -53 -54 -53h-41q-53 0 -53 53v316h-213 q-39 0 -39 37v14q0 37 39 37h213v88l-14 43h-199q-39 0 -39 37v14q0 37 39 37h168z" />
<glyph unicode="&#xa6;" horiz-adv-x="471" d="M168 -152v672q0 53 53 53h29q53 0 53 -53v-672q0 -53 -53 -53h-29q-53 0 -53 53zM168 954v631q0 53 53 53h29q53 0 53 -53v-631q0 -53 -53 -53h-29q-53 0 -53 53z" />
<glyph unicode="&#xa7;" horiz-adv-x="860" d="M100 98v158q0 55 54 55h39q25 0 39 -14.5t14 -40.5v-125q0 -103 44.5 -152t141.5 -49t140.5 49t43.5 152v51q0 73 -48 122.5t-177 111.5q-165 81 -228 147t-63 164v209q37 -54 148 -113v-63q0 -73 40.5 -115t168.5 -102q163 -77 235 -152t72 -172v-121 q0 -154 -82.5 -226.5t-247.5 -72.5h-4q-166 0 -248 71.5t-82 227.5zM100 1133v104q0 146 87.5 220.5t240.5 74.5h4q153 0 240.5 -74.5t87.5 -220.5v-133q0 -53 -53 -53h-39q-54 0 -54 53v100q0 103 -43.5 150t-140.5 47q-96 0 -139 -47t-43 -150v-39q0 -72 42.5 -115 t170.5 -104q163 -77 233 -149t70 -172v-213q-37 65 -148 116v60q0 73 -46 121t-167 106q-172 82 -237.5 151t-65.5 167z" />
<glyph unicode="&#xa8;" horiz-adv-x="901" d="M231 1599v64q0 55 54 55h39q53 0 53 -55v-64q0 -53 -53 -53h-39q-54 0 -54 53zM524 1599v64q0 55 54 55h38q54 0 54 -55v-64q0 -53 -54 -53h-38q-54 0 -54 53z" />
<glyph unicode="&#xa9;" horiz-adv-x="1292" d="M119 287v860q0 303 348 303h358q349 0 349 -303v-860q0 -303 -349 -303h-370q-167 0 -251.5 72t-84.5 231zM217 268q0 -94 58.5 -142t164.5 -48h412q105 0 163 48t58 142v897q0 94 -58 142.5t-163 48.5h-412q-106 0 -164.5 -48.5t-58.5 -142.5v-897zM399 424v586 q0 96 67.5 152.5t178.5 56.5h4q111 0 178.5 -56.5t67.5 -152.5v-121q0 -47 -49 -47h-19q-49 0 -49 47v84q0 139 -131 139q-133 0 -133 -139v-512q0 -139 133 -139q131 0 131 139v108q0 47 49 47h19q49 0 49 -47v-145q0 -99 -67 -154t-179 -55h-4q-113 0 -179.5 54t-66.5 155 z" />
<glyph unicode="&#xaa;" horiz-adv-x="466" d="M57 690v27q0 26 27 26h299q27 0 27 -26v-27q0 -26 -27 -26h-299q-27 0 -27 26zM57 1008v61q0 73 39.5 111.5t110.5 38.5q36 0 67.5 -14.5t44.5 -41.5v115q0 82 -73 82h-23q-73 0 -73 -82q0 -25 -27 -25h-31q-26 0 -26 27v12q0 67 42.5 108.5t114.5 41.5h31q70 0 113 -42 t43 -108v-407q0 -12 -7.5 -19.5t-19.5 -7.5h-31q-26 0 -26 27v22q-30 -51 -119 -51q-72 0 -111 39.5t-39 112.5zM147 1016q0 -80 74 -80h25q29 0 51 19t22 61v39q0 42 -22 62t-51 20h-25q-74 0 -74 -82v-39z" />
<glyph unicode="&#xab;" horiz-adv-x="806" d="M33 721q0 -44 28 -66l271 -249q26 -24 45.5 -18t19.5 36v37q0 44 -30 65l-217 199l217 199q30 21 30 65v27q0 34 -19.5 43t-45.5 -15l-271 -249q-28 -22 -28 -66v-8zM381 721q0 -43 29 -66l270 -249q26 -24 45.5 -18t19.5 36v37q0 44 -30 65l-217 199l217 199 q30 21 30 65v27q0 34 -19.5 43t-45.5 -15l-270 -249q-29 -23 -29 -66v-8z" />
<glyph unicode="&#xad;" horiz-adv-x="565" d="M53 725v16q0 54 53 54h353q53 0 53 -54v-16q0 -53 -53 -53h-353q-53 0 -53 53z" />
<glyph unicode="&#xae;" horiz-adv-x="673" d="M59 840v440q0 80 47.5 123t139.5 43h184q90 0 137 -44.5t47 -121.5v-440q0 -78 -47 -123t-137 -45h-190q-88 0 -134.5 45t-46.5 123zM125 829q0 -44 27.5 -71t78.5 -27h211q51 0 79 27t28 71v461q0 44 -28 70t-79 26h-211q-51 0 -78.5 -26t-27.5 -70v-461zM217 834v450 q0 12 7.5 19.5t19.5 7.5h98q57 0 88 -27.5t31 -79.5v-90q0 -72 -55 -94l61 -184q4 -13 -1.5 -21t-19.5 -8h-14q-22 0 -31 20l-55 181h-4h-59v-174q0 -27 -25 -27h-14q-12 0 -19.5 7.5t-7.5 19.5zM283 1067h57q55 0 55 59v66q0 57 -55 57h-57v-182z" />
<glyph unicode="&#xaf;" horiz-adv-x="790" d="M164 1599v15q0 55 53 55h356q54 0 54 -55v-15q0 -53 -54 -53h-356q-53 0 -53 53z" />
<glyph unicode="&#xb0;" horiz-adv-x="557" d="M37 1186q0 124 64 194t178 70t176.5 -69.5t62.5 -194.5q0 -126 -62.5 -195t-176.5 -69t-178 69t-64 195zM131 1186q0 -83 39.5 -129.5t108.5 -46.5t107 46.5t38 129.5t-38 129.5t-107 46.5t-108.5 -46.5t-39.5 -129.5z" />
<glyph unicode="&#xb1;" horiz-adv-x="860" d="M106 340v10q0 25 15 39t41 14h536q26 0 41 -14t15 -39v-10q0 -53 -56 -53h-536q-56 0 -56 53zM106 852v10q0 25 15 39t41 14h211v209q0 56 53 56h10q25 0 39 -15t14 -41v-209h209q26 0 41 -14t15 -39v-10q0 -53 -56 -53h-209v-211q0 -26 -14 -41t-39 -15h-10 q-53 0 -53 56v211h-211q-56 0 -56 53z" />
<glyph unicode="&#xb4;" horiz-adv-x="927" d="M371 1563q-10 17 4 45l88 166q20 36 63 36h56q34 0 43 -19.5t-13 -45.5l-133 -170q-23 -29 -61 -29h-6q-31 0 -41 17z" />
<glyph unicode="&#xb6;" horiz-adv-x="1159" d="M74 905v225q0 152 85.5 228t250.5 76h569q53 0 53 -54v-1327q0 -53 -53 -53h-39q-55 0 -55 53v1247h-129v-1247q0 -53 -54 -53h-38q-56 0 -56 53v549h-198q-336 0 -336 303z" />
<glyph unicode="&#xb7;" horiz-adv-x="339" d="M94 692v76q0 53 53 53h46q53 0 53 -53v-76q0 -53 -53 -53h-46q-53 0 -53 53z" />
<glyph unicode="&#xb8;" horiz-adv-x="720" d="M205 -207q-7 22 2 34.5t31 12.5h34q42 0 57 14.5t15 55.5v90h119v-98q0 -92 -36 -130t-116 -38q-35 0 -65 6q-29 8 -39 41z" />
<glyph unicode="&#xba;" horiz-adv-x="477" d="M57 690v27q0 26 27 26h309q27 0 27 -26v-27q0 -26 -27 -26h-309q-27 0 -27 26zM57 1022v250q0 80 45.5 125t120.5 45h33q73 0 118.5 -45t45.5 -125v-250q0 -80 -45.5 -125t-118.5 -45h-33q-75 0 -120.5 45t-45.5 125zM145 1036q0 -102 82 -102h19q84 0 84 102v221 q0 103 -84 103h-19q-82 0 -82 -103v-221z" />
<glyph unicode="&#xbb;" horiz-adv-x="806" d="M61 424q0 -30 20 -36t46 18l270 249q29 23 29 66v8q0 43 -29 66l-270 249q-26 24 -46 15t-20 -43v-27q0 -43 31 -65l217 -199l-217 -199q-31 -22 -31 -65v-37zM410 424q0 -30 19.5 -36t45.5 18l270 249q29 23 29 66v8q0 43 -29 66l-270 249q-26 24 -45.5 15t-19.5 -43 v-27q0 -44 30 -65l217 -199l-217 -199q-30 -21 -30 -65v-37z" />
<glyph unicode="&#xbc;" horiz-adv-x="1026" d="M94 606v719q0 14 8 25q19 22 29 51q9 33 37 33h4q14 0 22.5 -10t8.5 -27v-791q0 -41 -39 -41h-29q-41 0 -41 41zM139 45l494 1356q11 33 45 33h10q23 0 32 -12.5t1 -32.5l-494 -1356q-11 -33 -45 -33h-10q-23 0 -32 12.5t-1 32.5zM498 248v28q0 23 10 50l209 510 q11 32 47 32h57q41 0 41 -41v-518h31q41 0 41 -41v-20q0 -41 -41 -41h-31v-166q0 -41 -41 -41h-30q-41 0 -41 41v166h-211q-41 0 -41 41zM596 309h154v387z" />
<glyph unicode="&#xbd;" horiz-adv-x="1067" d="M94 606v719q0 14 8 25q19 22 29 51q10 33 37 33h4q14 0 22.5 -10t8.5 -27v-791q0 -41 -39 -41h-29q-41 0 -41 41zM139 45l494 1356q11 33 45 33h10q23 0 32 -12.5t1 -32.5l-494 -1356q-11 -33 -45 -33h-10q-23 0 -32 12.5t-1 32.5zM571 41v141q0 76 38.5 130t121.5 126 q78 64 103.5 95t25.5 73v70q0 53 -21.5 77.5t-68.5 24.5q-45 0 -65.5 -24.5t-20.5 -77.5v-90q0 -41 -41 -41h-27q-41 0 -41 41v106q0 91 50 138t147 47h2q98 0 148.5 -47t50.5 -138v-88q0 -21 -4.5 -40.5t-9.5 -34.5t-18.5 -33.5t-21 -28.5t-28 -29.5t-28.5 -26t-33.5 -28 t-32.5 -27.5q-64 -54 -88.5 -93.5t-24.5 -82.5v-82h248q41 0 41 -41v-16q0 -41 -41 -41h-320q-41 0 -41 41z" />
<glyph unicode="&#xbe;" horiz-adv-x="1261" d="M94 748v86q0 40 41 40h29q39 0 39 -40v-70q0 -57 22 -82t66 -25h10q44 0 66 25t22 82v125q0 78 -84 78h-61q-41 0 -41 41v16q0 41 41 41h49q51 0 73.5 20.5t22.5 71.5v82q0 57 -22 82t-66 25h-12q-44 0 -65 -24.5t-21 -82.5v-49q0 -41 -41 -41h-27q-41 0 -41 41v65 q0 191 197 191h10q197 0 197 -191v-104q0 -107 -72 -131q72 -24 72 -123v-149q0 -87 -47 -139t-140 -52h-30q-93 0 -140 52t-47 139zM373 45l493 1356q11 33 45 33h11q23 0 31.5 -12t0.5 -33l-493 -1356q-11 -33 -45 -33h-10q-23 0 -32 12.5t-1 32.5zM733 248v28q0 23 10 50 l209 510q11 32 47 32h56q41 0 41 -41v-518h30q41 0 41 -41v-20q0 -41 -41 -41h-30v-166q0 -41 -41 -41h-31q-39 0 -39 41v166h-211q-41 0 -41 41zM829 309h156v387z" />
<glyph unicode="&#xbf;" horiz-adv-x="782" d="M78 279v167q0 47 12 87.5t36 72.5t44 52.5t51 46.5q63 49 90 100t27 131v102q0 54 53 54h17q53 0 53 -54v-159q0 -146 -137 -269q-51 -43 -77 -84t-26 -96v-127q0 -105 43 -148.5t131 -43.5t128 43t40 149v143q0 54 53 54h35q54 0 54 -54v-167q0 -152 -75 -223.5 t-237 -71.5h-4q-162 0 -236.5 71.5t-74.5 223.5zM324 1305v75q0 54 53 54h45q53 0 53 -54v-75q0 -54 -53 -54h-45q-53 0 -53 54z" />
<glyph unicode="&#xc0;" horiz-adv-x="868" d="M51 59l283 1327q9 48 59 48h78q50 0 59 -48l287 -1327q9 -59 -49 -59h-43q-49 0 -57 49l-62 305h-352l-61 -305q-8 -49 -58 -49h-35q-58 0 -49 59zM223 1790.5q9 19.5 43 19.5h56q44 0 63 -36l88 -166q14 -28 7.5 -45t-31.5 -17h-19q-38 0 -61 29l-133 170 q-22 26 -13 45.5zM281 483h299l-150 746z" />
<glyph unicode="&#xc1;" horiz-adv-x="868" d="M51 59l283 1327q9 48 59 48h78q50 0 59 -48l287 -1327q9 -59 -49 -59h-43q-49 0 -57 49l-62 305h-352l-61 -305q-8 -49 -58 -49h-35q-58 0 -49 59zM281 483h299l-150 746zM389 1563q-10 17 4 45l88 166q20 36 64 36h55q34 0 43.5 -19.5t-12.5 -45.5l-133 -170 q-23 -29 -62 -29h-6q-31 0 -41 17z" />
<glyph unicode="&#xc2;" horiz-adv-x="868" d="M51 59l283 1327q9 48 59 48h78q50 0 59 -48l287 -1327q9 -59 -49 -59h-43q-49 0 -57 49l-62 305h-352l-61 -305q-8 -49 -58 -49h-35q-58 0 -49 59zM220 1566q-8 20 11 46l113 164q19 34 64 34h49q44 0 63 -34l113 -164q19 -26 11 -46t-36 -20h-26q-43 0 -62 37l-88 129 l-88 -129q-19 -37 -61 -37h-27q-28 0 -36 20zM281 483h299l-150 746z" />
<glyph unicode="&#xc3;" horiz-adv-x="868" d="M51 59l283 1327q9 48 59 48h78q50 0 59 -48l287 -1327q9 -59 -49 -59h-43q-49 0 -57 49l-62 305h-352l-61 -305q-8 -49 -58 -49h-35q-58 0 -49 59zM131 1599q0 96 48.5 145.5t119.5 49.5q42 0 81 -21t63.5 -46.5t54.5 -46.5t57 -21q68 0 68 90q0 37 45 37h20q45 0 45 -47 q0 -96 -46.5 -145.5t-115.5 -49.5q-42 0 -81.5 21t-65 46.5t-57.5 46.5t-60 21q-67 0 -67 -90q0 -35 -45 -35h-19q-45 0 -45 45zM281 483h299l-150 746z" />
<glyph unicode="&#xc4;" horiz-adv-x="868" d="M51 59l283 1327q9 48 59 48h78q50 0 59 -48l287 -1327q9 -59 -49 -59h-43q-49 0 -57 49l-62 305h-352l-61 -305q-8 -49 -58 -49h-35q-58 0 -49 59zM213 1599v64q0 55 53 55h39q53 0 53 -55v-64q0 -53 -53 -53h-39q-53 0 -53 53zM281 483h299l-150 746zM506 1599v64 q0 55 53 55h39q53 0 53 -55v-64q0 -53 -53 -53h-39q-53 0 -53 53z" />
<glyph unicode="&#xc5;" horiz-adv-x="868" d="M51 59l283 1327q9 48 59 48h78q50 0 59 -48l287 -1327q9 -59 -49 -59h-43q-49 0 -57 49l-62 305h-352l-61 -305q-8 -49 -58 -49h-35q-58 0 -49 59zM260 1692q0 72 47 114.5t125 42.5q77 0 123.5 -42.5t46.5 -114.5t-46.5 -115t-123.5 -43q-78 0 -125 43t-47 115zM281 483 h299l-150 746zM350 1692q0 -38 22.5 -59t59.5 -21q36 0 58 20.5t22 59.5t-22 59.5t-58 20.5q-37 0 -59.5 -21t-22.5 -59z" />
<glyph unicode="&#xc6;" horiz-adv-x="1269" d="M47 59l422 1332q12 43 59 43h621q53 0 53 -54v-26q0 -54 -53 -54h-379v-507h315q54 0 54 -54v-24q0 -53 -54 -53h-315v-529h385q53 0 53 -53v-27q0 -53 -53 -53h-479q-53 0 -53 53v301h-336l-97 -309q-12 -45 -59 -45h-41q-28 0 -40 16t-3 43zM326 481h297v819h-43z" />
<glyph unicode="&#xc7;" horiz-adv-x="905" d="M119 287v860q0 150 86 226.5t250 76.5h4q164 0 250 -76.5t86 -226.5v-197q0 -53 -54 -53h-39q-55 0 -55 53v160q0 110 -44.5 158.5t-145.5 48.5t-146 -48.5t-45 -158.5v-786q0 -110 45 -158.5t146 -48.5t145.5 48.5t44.5 158.5v194q0 53 55 53h39q54 0 54 -53v-231 q0 -279 -287 -301v-84q0 -92 -36 -130t-116 -38q-35 0 -65 6q-29 8 -39 41l-2 12q-7 22 2 34.5t31 12.5h34q42 0 57 14.5t15 55.5v78q-270 25 -270 299z" />
<glyph unicode="&#xc8;" horiz-adv-x="774" d="M127 53v1327q0 54 53 54h473q54 0 54 -54v-26q0 -54 -54 -54h-379v-507h316q53 0 53 -54v-24q0 -53 -53 -53h-316v-529h385q54 0 54 -53v-27q0 -53 -54 -53h-479q-53 0 -53 53zM204.5 1790.5q9.5 19.5 43.5 19.5h55q45 0 64 -36l88 -166q14 -28 7 -45t-32 -17h-18 q-39 0 -62 29l-133 170q-22 26 -12.5 45.5z" />
<glyph unicode="&#xc9;" horiz-adv-x="774" d="M127 53v1327q0 54 53 54h473q54 0 54 -54v-26q0 -54 -54 -54h-379v-507h316q53 0 53 -54v-24q0 -53 -53 -53h-316v-529h385q54 0 54 -53v-27q0 -53 -54 -53h-479q-53 0 -53 53zM371 1563q-10 17 4 45l88 166q20 36 63 36h56q34 0 43 -19.5t-13 -45.5l-133 -170 q-23 -29 -61 -29h-6q-31 0 -41 17z" />
<glyph unicode="&#xca;" horiz-adv-x="774" d="M127 53v1327q0 54 53 54h473q54 0 54 -54v-26q0 -54 -54 -54h-379v-507h316q53 0 53 -54v-24q0 -53 -53 -53h-316v-529h385q54 0 54 -53v-27q0 -53 -54 -53h-479q-53 0 -53 53zM202 1566q8 -20 36 -20h26q43 0 62 37l88 129l88 -129q19 -37 61 -37h27q28 0 35.5 20 t-11.5 46l-112 164q-19 34 -64 34h-49q-44 0 -63 -34l-113 -164q-19 -26 -11 -46z" />
<glyph unicode="&#xcb;" horiz-adv-x="774" d="M127 53v1327q0 54 53 54h473q54 0 54 -54v-26q0 -54 -54 -54h-379v-507h316q53 0 53 -54v-24q0 -53 -53 -53h-316v-529h385q54 0 54 -53v-27q0 -53 -54 -53h-479q-53 0 -53 53zM195 1599v64q0 55 53 55h39q53 0 53 -55v-64q0 -53 -53 -53h-39q-53 0 -53 53zM487 1599v64 q0 55 54 55h39q53 0 53 -55v-64q0 -53 -53 -53h-39q-54 0 -54 53z" />
<glyph unicode="&#xcc;" horiz-adv-x="415" d="M-0.5 1790.5q9.5 19.5 43.5 19.5h55q45 0 64 -36l88 -166q14 -28 7 -45t-32 -17h-18q-39 0 -62 29l-133 170q-22 26 -12.5 45.5zM135 53v1327q0 54 53 54h39q56 0 56 -54v-1327q0 -53 -56 -53h-39q-53 0 -53 53z" />
<glyph unicode="&#xcd;" horiz-adv-x="415" d="M135 53v1327q0 54 53 54h39q56 0 56 -54v-1327q0 -53 -56 -53h-39q-53 0 -53 53zM166 1563q-10 17 4 45l88 166q20 36 64 36h55q34 0 43.5 -19.5t-12.5 -45.5l-134 -170q-23 -29 -61 -29h-6q-31 0 -41 17z" />
<glyph unicode="&#xce;" horiz-adv-x="415" d="M-3 1566q8 -20 36 -20h26q43 0 62 37l88 129l88 -129q19 -37 61 -37h27q28 0 36 20t-11 46l-113 164q-19 34 -64 34h-49q-44 0 -63 -34l-113 -164q-19 -26 -11 -46zM135 53v1327q0 54 53 54h39q56 0 56 -54v-1327q0 -53 -56 -53h-39q-53 0 -53 53z" />
<glyph unicode="&#xcf;" horiz-adv-x="415" d="M-10 1599v64q0 55 53 55h39q53 0 53 -55v-64q0 -53 -53 -53h-39q-53 0 -53 53zM135 53v1327q0 54 53 54h39q56 0 56 -54v-1327q0 -53 -56 -53h-39q-53 0 -53 53zM283 1599v64q0 55 53 55h39q53 0 53 -55v-64q0 -53 -53 -53h-39q-53 0 -53 53z" />
<glyph unicode="&#xd0;" horiz-adv-x="944" d="M41 717v24q0 54 53 54h53v585q0 54 54 54h288q165 0 250.5 -76t85.5 -228v-827q0 -303 -336 -303h-288q-54 0 -54 53v611h-53q-53 0 -53 53zM295 133h186q104 0 150.5 48t46.5 159v754q0 111 -46.5 158.5t-150.5 47.5h-186v-505h172q53 0 53 -54v-24q0 -53 -53 -53h-172 v-531z" />
<glyph unicode="&#xd1;" horiz-adv-x="960" d="M127 53v1327q0 54 53 54h51q48 0 60 -43l405 -1045v1034q0 54 54 54h30q54 0 54 -54v-1327q0 -53 -54 -53h-43q-46 0 -61 43l-412 1065v-1055q0 -53 -53 -53h-31q-53 0 -53 53zM184 1599q0 -45 45 -45h19q45 0 45 35q0 90 67 90q28 0 60 -21t57.5 -46.5t65.5 -46.5 t82 -21q69 0 115 49.5t46 145.5q0 47 -45 47h-20q-45 0 -45 -37q0 -90 -68 -90q-27 0 -57 21t-54.5 46.5t-63.5 46.5t-81 21q-71 0 -119.5 -49.5t-48.5 -145.5z" />
<glyph unicode="&#xd2;" d="M119 287v860q0 303 336 303h16q336 0 336 -303v-860q0 -303 -336 -303h-16q-336 0 -336 303zM253.5 1790.5q9.5 19.5 43.5 19.5h55q45 0 64 -36l88 -166q14 -28 7 -45t-32 -17h-18q-39 0 -62 29l-133 170q-22 26 -12.5 45.5zM266 324q0 -111 46.5 -159t150.5 -48t150 48 t46 159v786q0 111 -46 159t-150 48t-150.5 -48t-46.5 -159v-786z" />
<glyph unicode="&#xd3;" d="M119 287v860q0 303 336 303h16q336 0 336 -303v-860q0 -303 -336 -303h-16q-336 0 -336 303zM266 324q0 -111 46.5 -159t150.5 -48t150 48t46 159v786q0 111 -46 159t-150 48t-150.5 -48t-46.5 -159v-786zM420 1563q-10 17 4 45l88 166q20 36 63 36h56q34 0 43.5 -19.5 t-12.5 -45.5l-134 -170q-23 -29 -61 -29h-6q-31 0 -41 17z" />
<glyph unicode="&#xd4;" d="M119 287v860q0 303 336 303h16q336 0 336 -303v-860q0 -303 -336 -303h-16q-336 0 -336 303zM251 1566q8 -20 36 -20h26q43 0 62 37l88 129l88 -129q19 -37 61 -37h27q28 0 36 20t-11 46l-113 164q-19 34 -64 34h-49q-44 0 -63 -34l-113 -164q-19 -26 -11 -46zM266 324 q0 -111 46.5 -159t150.5 -48t150 48t46 159v786q0 111 -46 159t-150 48t-150.5 -48t-46.5 -159v-786z" />
<glyph unicode="&#xd5;" d="M119 287v860q0 303 336 303h16q336 0 336 -303v-860q0 -303 -336 -303h-16q-336 0 -336 303zM162 1599q0 -45 45 -45h18q45 0 45 35q0 90 68 90q28 0 60 -21t57.5 -46.5t65 -46.5t81.5 -21q70 0 116 49.5t46 145.5q0 47 -45 47h-21q-45 0 -45 -37q0 -90 -67 -90 q-27 0 -57 21t-54.5 46.5t-63.5 46.5t-81 21q-71 0 -119.5 -49.5t-48.5 -145.5zM266 324q0 -111 46.5 -159t150.5 -48t150 48t46 159v786q0 111 -46 159t-150 48t-150.5 -48t-46.5 -159v-786z" />
<glyph unicode="&#xd6;" d="M119 287v860q0 303 336 303h16q336 0 336 -303v-860q0 -303 -336 -303h-16q-336 0 -336 303zM244 1599v64q0 55 53 55h39q53 0 53 -55v-64q0 -53 -53 -53h-39q-53 0 -53 53zM266 324q0 -111 46.5 -159t150.5 -48t150 48t46 159v786q0 111 -46 159t-150 48t-150.5 -48 t-46.5 -159v-786zM537 1599v64q0 55 53 55h39q53 0 53 -55v-64q0 -53 -53 -53h-39q-53 0 -53 53z" />
<glyph unicode="&#xd7;" horiz-adv-x="860" d="M199 508q-38 38 0 74l151 149l-151 150q-40 37 0 73l6 9q38 38 76 0l147 -152l152 152q34 37 73 2l9 -9q36 -36 -3 -75l-151 -150l151 -149q38 -38 3 -76l-9 -6q-38 -38 -73 0l-152 151l-147 -149q-37 -37 -76 -2z" />
<glyph unicode="&#xd8;" d="M119 287v860q0 303 336 303h16q336 0 336 -303v-860q0 -303 -336 -303h-16q-336 0 -336 303zM266 324q0 -86 29 -136l252 1119q-42 10 -84 10q-104 0 -150.5 -48t-46.5 -159v-786zM379 127q42 -10 84 -10q104 0 150 48t46 159v786q0 87 -28 135z" />
<glyph unicode="&#xd9;" horiz-adv-x="917" d="M123 287v1093q0 54 53 54h39q55 0 55 -54v-1056q0 -113 43 -160t146 -47t145.5 47t42.5 160v1056q0 54 55 54h39q54 0 54 -54v-1093q0 -303 -332 -303h-8q-165 0 -248.5 73.5t-83.5 229.5zM249.5 1790.5q9.5 19.5 43.5 19.5h55q45 0 64 -36l88 -166q14 -28 7 -45t-32 -17 h-18q-39 0 -62 29l-133 170q-22 26 -12.5 45.5z" />
<glyph unicode="&#xda;" horiz-adv-x="917" d="M123 287v1093q0 54 53 54h39q55 0 55 -54v-1056q0 -113 43 -160t146 -47t145.5 47t42.5 160v1056q0 54 55 54h39q54 0 54 -54v-1093q0 -303 -332 -303h-8q-165 0 -248.5 73.5t-83.5 229.5zM416 1563q-10 17 4 45l88 166q20 36 63 36h56q34 0 43 -19.5t-13 -45.5 l-133 -170q-23 -29 -61 -29h-6q-31 0 -41 17z" />
<glyph unicode="&#xdb;" horiz-adv-x="917" d="M123 287v1093q0 54 53 54h39q55 0 55 -54v-1056q0 -113 43 -160t146 -47t145.5 47t42.5 160v1056q0 54 55 54h39q54 0 54 -54v-1093q0 -303 -332 -303h-8q-165 0 -248.5 73.5t-83.5 229.5zM247 1566q8 -20 36 -20h26q43 0 62 37l88 129l88 -129q19 -37 61 -37h27 q28 0 35.5 20t-11.5 46l-112 164q-19 34 -64 34h-49q-44 0 -63 -34l-113 -164q-19 -26 -11 -46z" />
<glyph unicode="&#xdc;" horiz-adv-x="917" d="M123 287v1093q0 54 53 54h39q55 0 55 -54v-1056q0 -113 43 -160t146 -47t145.5 47t42.5 160v1056q0 54 55 54h39q54 0 54 -54v-1093q0 -303 -332 -303h-8q-165 0 -248.5 73.5t-83.5 229.5zM240 1599v64q0 55 53 55h39q53 0 53 -55v-64q0 -53 -53 -53h-39q-53 0 -53 53z M532 1599v64q0 55 54 55h39q53 0 53 -55v-64q0 -53 -53 -53h-39q-54 0 -54 53z" />
<glyph unicode="&#xdd;" horiz-adv-x="847" d="M61 1374q-10 28 1.5 44t41.5 16h43q46 0 62 -45l215 -676l217 676q16 45 61 45h41q30 0 41.5 -16t1.5 -44l-288 -829v-492q0 -53 -54 -53h-41q-53 0 -53 53v492zM381 1563q-10 17 4 45l88 166q20 36 64 36h55q34 0 43.5 -19.5t-12.5 -45.5l-134 -170q-23 -29 -61 -29h-6 q-31 0 -41 17z" />
<glyph unicode="&#xde;" horiz-adv-x="882" d="M127 53v1327q0 54 53 54h39q55 0 55 -54v-229h199q336 0 336 -303v-240q0 -303 -336 -303h-199v-252q0 -53 -55 -53h-39q-53 0 -53 53zM274 438h191q104 0 150.5 48t46.5 159v166q0 111 -46.5 159t-150.5 48h-191v-580z" />
<glyph unicode="&#xdf;" horiz-adv-x="1712" d="M98 283v184q0 53 54 53h38q54 0 54 -53v-152q0 -102 44.5 -151t141.5 -49t141.5 49t44.5 151v115q0 69 -29 107t-106 81l-200 111q-99 56 -141 110t-42 144v172q0 146 87.5 220.5t240.5 74.5h4q153 0 240.5 -74.5t87.5 -220.5v-168q0 -53 -53 -53h-39q-54 0 -54 53v135 q0 103 -43.5 150t-140.5 47t-140.5 -47t-43.5 -150v-100q0 -69 26 -102.5t103 -75.5l205 -113q90 -49 137 -110.5t47 -147.5v-190q0 -154 -82.5 -226.5t-247.5 -72.5h-4q-166 0 -248 71.5t-82 227.5zM954 283v184q0 53 54 53h39q53 0 53 -53v-152q0 -102 44.5 -151 t141.5 -49t142 49t45 151v115q0 69 -29 106.5t-107 81.5l-200 111q-99 56 -141 110t-42 144v172q0 146 87.5 220.5t240.5 74.5h4q153 0 240.5 -74.5t87.5 -220.5v-168q0 -53 -53 -53h-39q-54 0 -54 53v135q0 103 -43.5 150t-140.5 47t-140.5 -47t-43.5 -150v-100 q0 -69 26 -102.5t103 -75.5l205 -113q90 -49 137 -110.5t47 -147.5v-190q0 -154 -82.5 -226.5t-247.5 -72.5h-4q-166 0 -248 71.5t-82 227.5z" />
<glyph unicode="&#xe0;" horiz-adv-x="868" d="M51 59l283 1327q9 48 59 48h78q50 0 59 -48l287 -1327q9 -59 -49 -59h-43q-49 0 -57 49l-62 305h-352l-61 -305q-8 -49 -58 -49h-35q-58 0 -49 59zM223 1790.5q9 19.5 43 19.5h56q44 0 63 -36l88 -166q14 -28 7.5 -45t-31.5 -17h-19q-38 0 -61 29l-133 170 q-22 26 -13 45.5zM281 483h299l-150 746z" />
<glyph unicode="&#xe1;" horiz-adv-x="868" d="M51 59l283 1327q9 48 59 48h78q50 0 59 -48l287 -1327q9 -59 -49 -59h-43q-49 0 -57 49l-62 305h-352l-61 -305q-8 -49 -58 -49h-35q-58 0 -49 59zM281 483h299l-150 746zM389 1563q-10 17 4 45l88 166q20 36 64 36h55q34 0 43.5 -19.5t-12.5 -45.5l-133 -170 q-23 -29 -62 -29h-6q-31 0 -41 17z" />
<glyph unicode="&#xe2;" horiz-adv-x="868" d="M51 59l283 1327q9 48 59 48h78q50 0 59 -48l287 -1327q9 -59 -49 -59h-43q-49 0 -57 49l-62 305h-352l-61 -305q-8 -49 -58 -49h-35q-58 0 -49 59zM220 1566q-8 20 11 46l113 164q19 34 64 34h49q44 0 63 -34l113 -164q19 -26 11 -46t-36 -20h-26q-43 0 -62 37l-88 129 l-88 -129q-19 -37 -61 -37h-27q-28 0 -36 20zM281 483h299l-150 746z" />
<glyph unicode="&#xe3;" horiz-adv-x="868" d="M51 59l283 1327q9 48 59 48h78q50 0 59 -48l287 -1327q9 -59 -49 -59h-43q-49 0 -57 49l-62 305h-352l-61 -305q-8 -49 -58 -49h-35q-58 0 -49 59zM131 1599q0 96 48.5 145.5t119.5 49.5q42 0 81 -21t63.5 -46.5t54.5 -46.5t57 -21q68 0 68 90q0 37 45 37h20q45 0 45 -47 q0 -96 -46.5 -145.5t-115.5 -49.5q-42 0 -81.5 21t-65 46.5t-57.5 46.5t-60 21q-67 0 -67 -90q0 -35 -45 -35h-19q-45 0 -45 45zM281 483h299l-150 746z" />
<glyph unicode="&#xe4;" horiz-adv-x="868" d="M51 59l283 1327q9 48 59 48h78q50 0 59 -48l287 -1327q9 -59 -49 -59h-43q-49 0 -57 49l-62 305h-352l-61 -305q-8 -49 -58 -49h-35q-58 0 -49 59zM213 1599v64q0 55 53 55h39q53 0 53 -55v-64q0 -53 -53 -53h-39q-53 0 -53 53zM281 483h299l-150 746zM506 1599v64 q0 55 53 55h39q53 0 53 -55v-64q0 -53 -53 -53h-39q-53 0 -53 53z" />
<glyph unicode="&#xe5;" horiz-adv-x="868" d="M51 59l283 1327q9 48 59 48h78q50 0 59 -48l287 -1327q9 -59 -49 -59h-43q-49 0 -57 49l-62 305h-352l-61 -305q-8 -49 -58 -49h-35q-58 0 -49 59zM260 1692q0 72 47 114.5t125 42.5q77 0 123.5 -42.5t46.5 -114.5t-46.5 -115t-123.5 -43q-78 0 -125 43t-47 115zM281 483 h299l-150 746zM350 1692q0 -38 22.5 -59t59.5 -21q36 0 58 20.5t22 59.5t-22 59.5t-58 20.5q-37 0 -59.5 -21t-22.5 -59z" />
<glyph unicode="&#xe6;" horiz-adv-x="1269" d="M47 59l422 1332q12 43 59 43h621q53 0 53 -54v-26q0 -54 -53 -54h-379v-507h315q54 0 54 -54v-24q0 -53 -54 -53h-315v-529h385q53 0 53 -53v-27q0 -53 -53 -53h-479q-53 0 -53 53v301h-336l-97 -309q-12 -45 -59 -45h-41q-28 0 -40 16t-3 43zM326 481h297v819h-43z" />
<glyph unicode="&#xe7;" horiz-adv-x="905" d="M119 287v860q0 150 86 226.5t250 76.5h4q164 0 250 -76.5t86 -226.5v-197q0 -53 -54 -53h-39q-55 0 -55 53v160q0 110 -44.5 158.5t-145.5 48.5t-146 -48.5t-45 -158.5v-786q0 -110 45 -158.5t146 -48.5t145.5 48.5t44.5 158.5v194q0 53 55 53h39q54 0 54 -53v-231 q0 -279 -287 -301v-84q0 -92 -36 -130t-116 -38q-35 0 -65 6q-29 8 -39 41l-2 12q-7 22 2 34.5t31 12.5h34q42 0 57 14.5t15 55.5v78q-270 25 -270 299z" />
<glyph unicode="&#xe8;" horiz-adv-x="774" d="M127 53v1327q0 54 53 54h473q54 0 54 -54v-26q0 -54 -54 -54h-379v-507h316q53 0 53 -54v-24q0 -53 -53 -53h-316v-529h385q54 0 54 -53v-27q0 -53 -54 -53h-479q-53 0 -53 53zM204.5 1790.5q9.5 19.5 43.5 19.5h55q45 0 64 -36l88 -166q14 -28 7 -45t-32 -17h-18 q-39 0 -62 29l-133 170q-22 26 -12.5 45.5z" />
<glyph unicode="&#xe9;" horiz-adv-x="774" d="M127 53v1327q0 54 53 54h473q54 0 54 -54v-26q0 -54 -54 -54h-379v-507h316q53 0 53 -54v-24q0 -53 -53 -53h-316v-529h385q54 0 54 -53v-27q0 -53 -54 -53h-479q-53 0 -53 53zM371 1563q-10 17 4 45l88 166q20 36 63 36h56q34 0 43 -19.5t-13 -45.5l-133 -170 q-23 -29 -61 -29h-6q-31 0 -41 17z" />
<glyph unicode="&#xea;" horiz-adv-x="774" d="M127 53v1327q0 54 53 54h473q54 0 54 -54v-26q0 -54 -54 -54h-379v-507h316q53 0 53 -54v-24q0 -53 -53 -53h-316v-529h385q54 0 54 -53v-27q0 -53 -54 -53h-479q-53 0 -53 53zM202 1566q8 -20 36 -20h26q43 0 62 37l88 129l88 -129q19 -37 61 -37h27q28 0 35.5 20 t-11.5 46l-112 164q-19 34 -64 34h-49q-44 0 -63 -34l-113 -164q-19 -26 -11 -46z" />
<glyph unicode="&#xeb;" horiz-adv-x="774" d="M127 53v1327q0 54 53 54h473q54 0 54 -54v-26q0 -54 -54 -54h-379v-507h316q53 0 53 -54v-24q0 -53 -53 -53h-316v-529h385q54 0 54 -53v-27q0 -53 -54 -53h-479q-53 0 -53 53zM195 1599v64q0 55 53 55h39q53 0 53 -55v-64q0 -53 -53 -53h-39q-53 0 -53 53zM487 1599v64 q0 55 54 55h39q53 0 53 -55v-64q0 -53 -53 -53h-39q-54 0 -54 53z" />
<glyph unicode="&#xec;" horiz-adv-x="415" d="M-0.5 1790.5q9.5 19.5 43.5 19.5h55q45 0 64 -36l88 -166q14 -28 7 -45t-32 -17h-18q-39 0 -62 29l-133 170q-22 26 -12.5 45.5zM135 53v1327q0 54 53 54h39q56 0 56 -54v-1327q0 -53 -56 -53h-39q-53 0 -53 53z" />
<glyph unicode="&#xed;" horiz-adv-x="415" d="M135 53v1327q0 54 53 54h39q56 0 56 -54v-1327q0 -53 -56 -53h-39q-53 0 -53 53zM166 1563q-10 17 4 45l88 166q20 36 64 36h55q34 0 43.5 -19.5t-12.5 -45.5l-134 -170q-23 -29 -61 -29h-6q-31 0 -41 17z" />
<glyph unicode="&#xee;" horiz-adv-x="415" d="M-3 1566q8 -20 36 -20h26q43 0 62 37l88 129l88 -129q19 -37 61 -37h27q28 0 36 20t-11 46l-113 164q-19 34 -64 34h-49q-44 0 -63 -34l-113 -164q-19 -26 -11 -46zM135 53v1327q0 54 53 54h39q56 0 56 -54v-1327q0 -53 -56 -53h-39q-53 0 -53 53z" />
<glyph unicode="&#xef;" horiz-adv-x="415" d="M-10 1599v64q0 55 53 55h39q53 0 53 -55v-64q0 -53 -53 -53h-39q-53 0 -53 53zM135 53v1327q0 54 53 54h39q56 0 56 -54v-1327q0 -53 -56 -53h-39q-53 0 -53 53zM283 1599v64q0 55 53 55h39q53 0 53 -55v-64q0 -53 -53 -53h-39q-53 0 -53 53z" />
<glyph unicode="&#xf0;" horiz-adv-x="944" d="M41 717v24q0 54 53 54h53v585q0 54 54 54h288q165 0 250.5 -76t85.5 -228v-827q0 -303 -336 -303h-288q-54 0 -54 53v611h-53q-53 0 -53 53zM295 133h186q104 0 150.5 48t46.5 159v754q0 111 -46.5 158.5t-150.5 47.5h-186v-505h172q53 0 53 -54v-24q0 -53 -53 -53h-172 v-531z" />
<glyph unicode="&#xf1;" horiz-adv-x="960" d="M127 53v1327q0 54 53 54h51q48 0 60 -43l405 -1045v1034q0 54 54 54h30q54 0 54 -54v-1327q0 -53 -54 -53h-43q-46 0 -61 43l-412 1065v-1055q0 -53 -53 -53h-31q-53 0 -53 53zM184 1599q0 -45 45 -45h19q45 0 45 35q0 90 67 90q28 0 60 -21t57.5 -46.5t65.5 -46.5 t82 -21q69 0 115 49.5t46 145.5q0 47 -45 47h-20q-45 0 -45 -37q0 -90 -68 -90q-27 0 -57 21t-54.5 46.5t-63.5 46.5t-81 21q-71 0 -119.5 -49.5t-48.5 -145.5z" />
<glyph unicode="&#xf2;" d="M119 287v860q0 303 336 303h16q336 0 336 -303v-860q0 -303 -336 -303h-16q-336 0 -336 303zM253.5 1790.5q9.5 19.5 43.5 19.5h55q45 0 64 -36l88 -166q14 -28 7 -45t-32 -17h-18q-39 0 -62 29l-133 170q-22 26 -12.5 45.5zM266 324q0 -111 46.5 -159t150.5 -48t150 48 t46 159v786q0 111 -46 159t-150 48t-150.5 -48t-46.5 -159v-786z" />
<glyph unicode="&#xf3;" d="M119 287v860q0 303 336 303h16q336 0 336 -303v-860q0 -303 -336 -303h-16q-336 0 -336 303zM266 324q0 -111 46.5 -159t150.5 -48t150 48t46 159v786q0 111 -46 159t-150 48t-150.5 -48t-46.5 -159v-786zM420 1563q-10 17 4 45l88 166q20 36 63 36h56q34 0 43.5 -19.5 t-12.5 -45.5l-134 -170q-23 -29 -61 -29h-6q-31 0 -41 17z" />
<glyph unicode="&#xf4;" d="M119 287v860q0 303 336 303h16q336 0 336 -303v-860q0 -303 -336 -303h-16q-336 0 -336 303zM251 1566q8 -20 36 -20h26q43 0 62 37l88 129l88 -129q19 -37 61 -37h27q28 0 36 20t-11 46l-113 164q-19 34 -64 34h-49q-44 0 -63 -34l-113 -164q-19 -26 -11 -46zM266 324 q0 -111 46.5 -159t150.5 -48t150 48t46 159v786q0 111 -46 159t-150 48t-150.5 -48t-46.5 -159v-786z" />
<glyph unicode="&#xf5;" d="M119 287v860q0 303 336 303h16q336 0 336 -303v-860q0 -303 -336 -303h-16q-336 0 -336 303zM162 1599q0 -45 45 -45h18q45 0 45 35q0 90 68 90q28 0 60 -21t57.5 -46.5t65 -46.5t81.5 -21q70 0 116 49.5t46 145.5q0 47 -45 47h-21q-45 0 -45 -37q0 -90 -67 -90 q-27 0 -57 21t-54.5 46.5t-63.5 46.5t-81 21q-71 0 -119.5 -49.5t-48.5 -145.5zM266 324q0 -111 46.5 -159t150.5 -48t150 48t46 159v786q0 111 -46 159t-150 48t-150.5 -48t-46.5 -159v-786z" />
<glyph unicode="&#xf6;" d="M119 287v860q0 303 336 303h16q336 0 336 -303v-860q0 -303 -336 -303h-16q-336 0 -336 303zM244 1599v64q0 55 53 55h39q53 0 53 -55v-64q0 -53 -53 -53h-39q-53 0 -53 53zM266 324q0 -111 46.5 -159t150.5 -48t150 48t46 159v786q0 111 -46 159t-150 48t-150.5 -48 t-46.5 -159v-786zM537 1599v64q0 55 53 55h39q53 0 53 -55v-64q0 -53 -53 -53h-39q-53 0 -53 53z" />
<glyph unicode="&#xf7;" horiz-adv-x="860" d="M106 727v10q0 25 15 39.5t41 14.5h536q26 0 41 -14.5t15 -39.5v-10q0 -53 -56 -53h-536q-56 0 -56 53zM356 348v60q0 53 54 53h41q53 0 53 -53v-60q0 -25 -14 -39t-39 -14h-41q-25 0 -39.5 14t-14.5 39zM356 1055v59q0 25 14.5 39t39.5 14h41q25 0 39 -14t14 -39v-59 q0 -54 -53 -54h-41q-25 0 -39.5 14t-14.5 40z" />
<glyph unicode="&#xf8;" d="M119 287v860q0 303 336 303h16q336 0 336 -303v-860q0 -303 -336 -303h-16q-336 0 -336 303zM266 324q0 -86 29 -136l252 1119q-42 10 -84 10q-104 0 -150.5 -48t-46.5 -159v-786zM379 127q42 -10 84 -10q104 0 150 48t46 159v786q0 87 -28 135z" />
<glyph unicode="&#xf9;" horiz-adv-x="917" d="M123 287v1093q0 54 53 54h39q55 0 55 -54v-1056q0 -113 43 -160t146 -47t145.5 47t42.5 160v1056q0 54 55 54h39q54 0 54 -54v-1093q0 -303 -332 -303h-8q-165 0 -248.5 73.5t-83.5 229.5zM249.5 1790.5q9.5 19.5 43.5 19.5h55q45 0 64 -36l88 -166q14 -28 7 -45t-32 -17 h-18q-39 0 -62 29l-133 170q-22 26 -12.5 45.5z" />
<glyph unicode="&#xfa;" horiz-adv-x="917" d="M123 287v1093q0 54 53 54h39q55 0 55 -54v-1056q0 -113 43 -160t146 -47t145.5 47t42.5 160v1056q0 54 55 54h39q54 0 54 -54v-1093q0 -303 -332 -303h-8q-165 0 -248.5 73.5t-83.5 229.5zM416 1563q-10 17 4 45l88 166q20 36 63 36h56q34 0 43 -19.5t-13 -45.5 l-133 -170q-23 -29 -61 -29h-6q-31 0 -41 17z" />
<glyph unicode="&#xfb;" horiz-adv-x="917" d="M123 287v1093q0 54 53 54h39q55 0 55 -54v-1056q0 -113 43 -160t146 -47t145.5 47t42.5 160v1056q0 54 55 54h39q54 0 54 -54v-1093q0 -303 -332 -303h-8q-165 0 -248.5 73.5t-83.5 229.5zM247 1566q8 -20 36 -20h26q43 0 62 37l88 129l88 -129q19 -37 61 -37h27 q28 0 35.5 20t-11.5 46l-112 164q-19 34 -64 34h-49q-44 0 -63 -34l-113 -164q-19 -26 -11 -46z" />
<glyph unicode="&#xfc;" horiz-adv-x="917" d="M123 287v1093q0 54 53 54h39q55 0 55 -54v-1056q0 -113 43 -160t146 -47t145.5 47t42.5 160v1056q0 54 55 54h39q54 0 54 -54v-1093q0 -303 -332 -303h-8q-165 0 -248.5 73.5t-83.5 229.5zM240 1599v64q0 55 53 55h39q53 0 53 -55v-64q0 -53 -53 -53h-39q-53 0 -53 53z M532 1599v64q0 55 54 55h39q53 0 53 -55v-64q0 -53 -53 -53h-39q-54 0 -54 53z" />
<glyph unicode="&#xfd;" horiz-adv-x="847" d="M61 1374q-10 28 1.5 44t41.5 16h43q46 0 62 -45l215 -676l217 676q16 45 61 45h41q30 0 41.5 -16t1.5 -44l-288 -829v-492q0 -53 -54 -53h-41q-53 0 -53 53v492zM381 1563q-10 17 4 45l88 166q20 36 64 36h55q34 0 43.5 -19.5t-12.5 -45.5l-134 -170q-23 -29 -61 -29h-6 q-31 0 -41 17z" />
<glyph unicode="&#xfe;" horiz-adv-x="882" d="M127 53v1327q0 54 53 54h39q55 0 55 -54v-229h199q336 0 336 -303v-240q0 -303 -336 -303h-199v-252q0 -53 -55 -53h-39q-53 0 -53 53zM274 438h191q104 0 150.5 48t46.5 159v166q0 111 -46.5 159t-150.5 48h-191v-580z" />
<glyph unicode="&#xff;" horiz-adv-x="847" d="M61 1374q-10 28 1.5 44t41.5 16h43q46 0 62 -45l215 -676l217 676q16 45 61 45h41q30 0 41.5 -16t1.5 -44l-288 -829v-492q0 -53 -54 -53h-41q-53 0 -53 53v492zM205 1599v64q0 55 53 55h39q53 0 53 -55v-64q0 -53 -53 -53h-39q-53 0 -53 53zM498 1599v64q0 55 53 55h39 q53 0 53 -55v-64q0 -53 -53 -53h-39q-53 0 -53 53z" />
<glyph unicode="&#x152;" horiz-adv-x="1298" d="M119 303v827q0 152 85.5 228t250.5 76h723q53 0 53 -54v-26q0 -54 -53 -54h-379v-507h315q53 0 53 -54v-24q0 -53 -53 -53h-315v-529h385q53 0 53 -53v-27q0 -53 -53 -53h-729q-336 0 -336 303zM266 340q0 -111 46.5 -159t150.5 -48h186v1167h-186q-104 0 -150.5 -47.5 t-46.5 -158.5v-754z" />
<glyph unicode="&#x153;" horiz-adv-x="1298" d="M119 303v827q0 152 85.5 228t250.5 76h723q53 0 53 -54v-26q0 -54 -53 -54h-379v-507h315q53 0 53 -54v-24q0 -53 -53 -53h-315v-529h385q53 0 53 -53v-27q0 -53 -53 -53h-729q-336 0 -336 303zM266 340q0 -111 46.5 -159t150.5 -48h186v1167h-186q-104 0 -150.5 -47.5 t-46.5 -158.5v-754z" />
<glyph unicode="&#x178;" horiz-adv-x="847" d="M61 1374q-10 28 1.5 44t41.5 16h43q46 0 62 -45l215 -676l217 676q16 45 61 45h41q30 0 41.5 -16t1.5 -44l-288 -829v-492q0 -53 -54 -53h-41q-53 0 -53 53v492zM205 1599v64q0 55 53 55h39q53 0 53 -55v-64q0 -53 -53 -53h-39q-53 0 -53 53zM498 1599v64q0 55 53 55h39 q53 0 53 -55v-64q0 -53 -53 -53h-39q-53 0 -53 53z" />
<glyph unicode="&#x2c6;" horiz-adv-x="892" d="M234.5 1566q7.5 -20 35.5 -20h27q42 0 61 37l88 129l89 -129q19 -37 61 -37h27q28 0 35.5 20t-11.5 46l-112 164q-19 34 -64 34h-49q-45 0 -64 -34l-112 -164q-19 -26 -11.5 -46z" />
<glyph unicode="&#x2dc;" horiz-adv-x="995" d="M197 1599q0 -45 45 -45h18q45 0 45 35q0 90 68 90q28 0 60 -21t57.5 -46.5t65 -46.5t81.5 -21q69 0 115.5 49.5t46.5 145.5q0 47 -45 47h-21q-45 0 -45 -37q0 -90 -67 -90q-27 0 -57 21t-54.5 46.5t-63.5 46.5t-81 21q-71 0 -119.5 -49.5t-48.5 -145.5z" />
<glyph unicode="&#x2000;" horiz-adv-x="924" />
<glyph unicode="&#x2001;" horiz-adv-x="1849" />
<glyph unicode="&#x2002;" horiz-adv-x="924" />
<glyph unicode="&#x2003;" horiz-adv-x="1849" />
<glyph unicode="&#x2004;" horiz-adv-x="616" />
<glyph unicode="&#x2005;" horiz-adv-x="462" />
<glyph unicode="&#x2006;" horiz-adv-x="308" />
<glyph unicode="&#x2007;" horiz-adv-x="308" />
<glyph unicode="&#x2008;" horiz-adv-x="231" />
<glyph unicode="&#x2009;" horiz-adv-x="369" />
<glyph unicode="&#x200a;" horiz-adv-x="102" />
<glyph unicode="&#x2010;" horiz-adv-x="565" d="M53 725v16q0 54 53 54h353q53 0 53 -54v-16q0 -53 -53 -53h-353q-53 0 -53 53z" />
<glyph unicode="&#x2011;" horiz-adv-x="565" d="M53 725v16q0 54 53 54h353q53 0 53 -54v-16q0 -53 -53 -53h-353q-53 0 -53 53z" />
<glyph unicode="&#x2012;" horiz-adv-x="565" d="M53 725v16q0 54 53 54h353q53 0 53 -54v-16q0 -53 -53 -53h-353q-53 0 -53 53z" />
<glyph unicode="&#x2013;" horiz-adv-x="729" d="M53 725v16q0 54 53 54h517q53 0 53 -54v-16q0 -53 -53 -53h-517q-53 0 -53 53z" />
<glyph unicode="&#x2014;" horiz-adv-x="1036" d="M53 725v16q0 54 53 54h824q53 0 53 -54v-16q0 -53 -53 -53h-824q-53 0 -53 53z" />
<glyph unicode="&#x2018;" horiz-adv-x="339" d="M94 1071v82q0 135 62 256q24 43 55 29q27 -14 6 -64q-38 -83 -41 -174h17q53 0 53 -53v-76q0 -53 -53 -53h-46q-53 0 -53 53z" />
<glyph unicode="&#x2019;" horiz-adv-x="339" d="M94 1305v75q0 54 53 54h46q53 0 53 -54v-82q0 -135 -62 -256q-23 -42 -55 -28q-27 14 -6 63q38 83 41 174h-17q-53 0 -53 54z" />
<glyph unicode="&#x201a;" horiz-adv-x="339" d="M94 53v76q0 53 53 53h46q53 0 53 -53v-82q0 -135 -62 -256q-24 -43 -55 -29q-27 14 -6 64q38 83 41 174h-17q-53 0 -53 53z" />
<glyph unicode="&#x201c;" horiz-adv-x="573" d="M94 1071v82q0 135 62 256q24 43 55 29q27 -14 6 -64q-38 -83 -41 -174h17q53 0 53 -53v-76q0 -53 -53 -53h-46q-53 0 -53 53zM328 1071v82q0 137 61 256q24 43 55 29q28 -14 7 -64q-38 -83 -41 -174h16q53 0 53 -53v-76q0 -53 -53 -53h-45q-53 0 -53 53z" />
<glyph unicode="&#x201d;" horiz-adv-x="573" d="M94 1305v75q0 54 53 54h46q53 0 53 -54v-82q0 -135 -62 -256q-23 -42 -55 -28q-27 14 -6 63q38 83 41 174h-17q-53 0 -53 54zM328 1305v75q0 54 53 54h45q53 0 53 -54v-82q0 -137 -61 -256q-23 -42 -56 -28q-27 14 -6 63q38 83 41 174h-16q-53 0 -53 54z" />
<glyph unicode="&#x201e;" horiz-adv-x="573" d="M94 53v76q0 53 53 53h46q53 0 53 -53v-82q0 -135 -62 -256q-24 -43 -55 -29q-27 14 -6 64q38 83 41 174h-17q-53 0 -53 53zM328 53v76q0 53 53 53h45q53 0 53 -53v-82q0 -137 -61 -256q-24 -43 -56 -29q-27 14 -6 64q38 83 41 174h-16q-53 0 -53 53z" />
<glyph unicode="&#x2022;" horiz-adv-x="579" d="M156 729q0 75 33.5 108t101.5 33t101.5 -33t33.5 -108t-33.5 -108t-101.5 -33t-101.5 33t-33.5 108z" />
<glyph unicode="&#x2026;" horiz-adv-x="1091" d="M94 53v76q0 53 53 53h46q53 0 53 -53v-76q0 -53 -53 -53h-46q-53 0 -53 53zM469 53v76q0 53 53 53h45q54 0 54 -53v-76q0 -53 -54 -53h-45q-53 0 -53 53zM846 53v76q0 53 53 53h45q53 0 53 -53v-76q0 -53 -53 -53h-45q-53 0 -53 53z" />
<glyph unicode="&#x202f;" horiz-adv-x="369" />
<glyph unicode="&#x2039;" horiz-adv-x="458" d="M33 721q0 -44 28 -66l271 -249q26 -24 45.5 -18t19.5 36v37q0 44 -30 65l-217 199l217 199q30 21 30 65v27q0 34 -19.5 43t-45.5 -15l-271 -249q-28 -22 -28 -66v-8z" />
<glyph unicode="&#x203a;" horiz-adv-x="458" d="M61 424q0 -30 20 -36t46 18l270 249q29 23 29 66v8q0 43 -29 66l-270 249q-26 24 -46 15t-20 -43v-27q0 -43 31 -65l217 -199l-217 -199q-31 -22 -31 -65v-37z" />
<glyph unicode="&#x205f;" horiz-adv-x="462" />
<glyph unicode="&#x20ac;" d="M8 616v15q0 37 39 37h92v131h-92q-39 0 -39 37v14q0 37 39 37h92v260q0 150 86 226.5t250 76.5h4q164 0 250 -76.5t86 -226.5v-197q0 -53 -53 -53h-39q-55 0 -55 53v160q0 110 -45 158.5t-146 48.5t-145.5 -48.5t-44.5 -158.5v-223h221q39 0 39 -37v-14q0 -37 -39 -37 h-221v-131h221q39 0 39 -37v-15q0 -36 -39 -36h-221v-256q0 -110 44.5 -158.5t145.5 -48.5t146 48.5t45 158.5v194q0 53 55 53h39q53 0 53 -53v-231q0 -303 -336 -303h-4q-336 0 -336 303v293h-92q-39 0 -39 36z" />
<glyph unicode="&#x2122;" horiz-adv-x="790" d="M35 1389v18q0 27 26 27h209q12 0 19.5 -7.5t7.5 -19.5v-18q0 -11 -7.5 -18t-19.5 -7h-65v-457q0 -12 -7 -19t-18 -7h-26q-27 0 -27 26v457h-66q-12 0 -19 7t-7 18zM360 907v500q0 12 7 19.5t18 7.5h25q22 0 28 -21l109 -311l106 311q6 21 29 21h27q26 0 26 -27v-500 q0 -26 -26 -26h-23q-27 0 -27 26v330l-86 -244q-6 -20 -26 -20q-18 0 -27 20l-84 244v-330q0 -26 -26 -26h-25q-11 0 -18 7t-7 19z" />
<glyph unicode="&#x25fc;" horiz-adv-x="1433" d="M0 0v1434h1434v-1434h-1434z" />
</font>
</defs>
</svg>
